<svg xmlns="http://www.w3.org/2000/svg" class="plt-container" width="600.0" height="600.0">
  <style type="text/css">
  .plt-container {
   font-family: "Lucida Grande", sans-serif;
   user-select: none;
   -webkit-user-select: none;
   -moz-user-select: none;
   -ms-user-select: none;
}
text {
   fill: #9600ff;
   font-weight: bold;
   font-style: italic;   

   text-rendering: optimizeLegibility;
}
#pwSzihR .plot-title {
   fill: #171717;
   font-family: "Lucida Grande", sans-serif;
   font-size: 16.0px;
   font-weight: bold;
   font-style: normal;   
}
#pwSzihR .plot-subtitle {
   fill: #171717;
   font-family: "Lucida Grande", sans-serif;
   font-size: 15.0px;
   font-weight: normal;
   font-style: normal;   
}
#pwSzihR .plot-caption {
   fill: #171717;
   font-family: "Lucida Grande", sans-serif;
   font-size: 13.0px;
   font-weight: normal;
   font-style: normal;   
}
#pwSzihR .legend-title {
   fill: #171717;
   font-family: "Lucida Grande", sans-serif;
   font-size: 15.0px;
   font-weight: normal;
   font-style: normal;   
}
#pwSzihR .legend-item {
   fill: #474747;
   font-family: "Lucida Grande", sans-serif;
   font-size: 13.0px;
   font-weight: normal;
   font-style: normal;   
}
#pwSzihR .axis-title-x {
   fill: #474747;
   font-family: "Lucida Grande", sans-serif;
   font-size: 15.0px;
   font-weight: normal;
   font-style: normal;   
}
#pwSzihR .axis-text-x {
   fill: #474747;
   font-family: "Lucida Grande", sans-serif;
   font-size: 13.0px;
   font-weight: normal;
   font-style: normal;   
}
#d4aOD8p .axis-tooltip-text-x {
   fill: #ffffff;
   font-family: "Lucida Grande", sans-serif;
   font-size: 13.0px;
   font-weight: normal;
   font-style: normal;   
}
#pwSzihR .axis-title-y {
   fill: #474747;
   font-family: "Lucida Grande", sans-serif;
   font-size: 15.0px;
   font-weight: normal;
   font-style: normal;   
}
#pwSzihR .axis-text-y {
   fill: #474747;
   font-family: "Lucida Grande", sans-serif;
   font-size: 13.0px;
   font-weight: normal;
   font-style: normal;   
}
#d4aOD8p .axis-tooltip-text-y {
   fill: #ffffff;
   font-family: "Lucida Grande", sans-serif;
   font-size: 13.0px;
   font-weight: normal;
   font-style: normal;   
}
#pwSzihR .facet-strip-text-x {
   fill: #474747;
   font-family: "Lucida Grande", sans-serif;
   font-size: 15.0px;
   font-weight: normal;
   font-style: normal;   
}
#pwSzihR .facet-strip-text-y {
   fill: #474747;
   font-family: "Lucida Grande", sans-serif;
   font-size: 15.0px;
   font-weight: normal;
   font-style: normal;   
}
#d4aOD8p .tooltip-text {
   fill: #474747;
   font-family: "Lucida Grande", sans-serif;
   font-size: 13.0px;
   font-weight: normal;
   font-style: normal;   
}
#d4aOD8p .tooltip-title {
   fill: #474747;
   font-family: "Lucida Grande", sans-serif;
   font-size: 13.0px;
   font-weight: bold;
   font-style: normal;   
}
#d4aOD8p .tooltip-label {
   fill: #474747;
   font-family: "Lucida Grande", sans-serif;
   font-size: 13.0px;
   font-weight: bold;
   font-style: normal;   
}

  </style>
  <g id="pwSzihR">
    <rect x="0.0" y="0.0" height="600.0" width="600.0" stroke="rgb(71,71,71)" stroke-opacity="1.0" stroke-width="0.0" fill="rgb(255,255,255)" fill-opacity="1.0">
    </rect>
    <g transform="translate(31.928522727272707 57.0 ) ">
      <rect x="347.13795454545453" y="0.0" height="234.5" width="18.0" stroke-width="0.0" fill="rgb(217,217,217)" fill-opacity="1.0" stroke="rgb(71,71,71)" stroke-opacity="1.0">
      </rect>
      <g transform="translate(356.13795454545453 117.25 ) rotate(90.0 ) ">
        <text class="facet-strip-text-y" text-anchor="middle" dy="0.35em">
        multi
        </text>
      </g>
      <rect x="24.42" y="0.0" height="234.5" width="316.7179545454545" stroke="rgb(71,71,71)" stroke-opacity="1.0" stroke-width="0.0" fill="rgb(235,235,235)" fill-opacity="1.0">
      </rect>
      <g transform="translate(24.42 234.5 ) ">
        <line x1="42.148117718809125" y1="-0.0" x2="42.148117718809125" y2="-234.5" stroke="rgb(255,255,255)" stroke-opacity="1.0" stroke-width="0.5">
        </line>
        <line x1="99.96446575558434" y1="-0.0" x2="99.96446575558434" y2="-234.5" stroke="rgb(255,255,255)" stroke-opacity="1.0" stroke-width="0.5">
        </line>
        <line x1="157.78081379235954" y1="-0.0" x2="157.78081379235954" y2="-234.5" stroke="rgb(255,255,255)" stroke-opacity="1.0" stroke-width="0.5">
        </line>
        <line x1="215.59716182913473" y1="-0.0" x2="215.59716182913473" y2="-234.5" stroke="rgb(255,255,255)" stroke-opacity="1.0" stroke-width="0.5">
        </line>
        <line x1="273.41350986590993" y1="-0.0" x2="273.41350986590993" y2="-234.5" stroke="rgb(255,255,255)" stroke-opacity="1.0" stroke-width="0.5">
        </line>
        <line x1="13.239943700421522" y1="-0.0" x2="13.239943700421522" y2="-234.5" stroke="rgb(255,255,255)" stroke-opacity="1.0" stroke-width="1.4">
        </line>
        <line x1="71.05629173719673" y1="-0.0" x2="71.05629173719673" y2="-234.5" stroke="rgb(255,255,255)" stroke-opacity="1.0" stroke-width="1.4">
        </line>
        <line x1="128.87263977397194" y1="-0.0" x2="128.87263977397194" y2="-234.5" stroke="rgb(255,255,255)" stroke-opacity="1.0" stroke-width="1.4">
        </line>
        <line x1="186.6889878107471" y1="-0.0" x2="186.6889878107471" y2="-234.5" stroke="rgb(255,255,255)" stroke-opacity="1.0" stroke-width="1.4">
        </line>
        <line x1="244.50533584752233" y1="-0.0" x2="244.50533584752233" y2="-234.5" stroke="rgb(255,255,255)" stroke-opacity="1.0" stroke-width="1.4">
        </line>
        <line x1="302.3216838842975" y1="-0.0" x2="302.3216838842975" y2="-234.5" stroke="rgb(255,255,255)" stroke-opacity="1.0" stroke-width="1.4">
        </line>
      </g>
      <g transform="translate(24.42 0.0 ) ">
        <line x1="0.0" y1="176.78397919269707" x2="316.7179545454545" y2="176.78397919269707" stroke="rgb(255,255,255)" stroke-opacity="1.0" stroke-width="0.5">
        </line>
        <line x1="0.0" y1="107.63716584013508" x2="316.7179545454545" y2="107.63716584013508" stroke="rgb(255,255,255)" stroke-opacity="1.0" stroke-width="0.5">
        </line>
        <line x1="0.0" y1="38.49035248757309" x2="316.7179545454545" y2="38.49035248757309" stroke="rgb(255,255,255)" stroke-opacity="1.0" stroke-width="0.5">
        </line>
        <line x1="0.0" y1="211.35738586897807" x2="316.7179545454545" y2="211.35738586897807" stroke="rgb(255,255,255)" stroke-opacity="1.0" stroke-width="1.4">
        </line>
        <line x1="0.0" y1="142.21057251641608" x2="316.7179545454545" y2="142.21057251641608" stroke="rgb(255,255,255)" stroke-opacity="1.0" stroke-width="1.4">
        </line>
        <line x1="0.0" y1="73.06375916385409" x2="316.7179545454545" y2="73.06375916385409" stroke="rgb(255,255,255)" stroke-opacity="1.0" stroke-width="1.4">
        </line>
        <g transform="translate(0.0 211.35738586897807 ) ">
          <line stroke-width="1.4" stroke="rgb(71,71,71)" stroke-opacity="1.0" x2="-4.0" y2="0.0">
          </line>
          <g transform="translate(-7.0 0.0 ) ">
            <text class="axis-text-y" text-anchor="end" dy="0.35em">
            -5
            </text>
          </g>
        </g>
        <g transform="translate(0.0 142.21057251641608 ) ">
          <line stroke-width="1.4" stroke="rgb(71,71,71)" stroke-opacity="1.0" x2="-4.0" y2="0.0">
          </line>
          <g transform="translate(-7.0 0.0 ) ">
            <text class="axis-text-y" text-anchor="end" dy="0.35em">
            0
            </text>
          </g>
        </g>
        <g transform="translate(0.0 73.06375916385409 ) ">
          <line stroke-width="1.4" stroke="rgb(71,71,71)" stroke-opacity="1.0" x2="-4.0" y2="0.0">
          </line>
          <g transform="translate(-7.0 0.0 ) ">
            <text class="axis-text-y" text-anchor="end" dy="0.35em">
            5
            </text>
          </g>
        </g>
        <g transform="translate(0.0 3.916945811292095 ) ">
          <line stroke-width="1.4" stroke="rgb(71,71,71)" stroke-opacity="1.0" x2="-4.0" y2="0.0">
          </line>
          <g transform="translate(-7.0 0.0 ) ">
            <text class="axis-text-y" text-anchor="end" dy="0.35em">
            10
            </text>
          </g>
        </g>
      </g>
      <g transform="translate(24.42 0.0 ) " clip-path="url(#cUTAgxy)" clip-bounds-jfx="[rect (0.0, 0.0), (316.7179545454545, 234.5)]">
        <defs>
          <clipPath id="cUTAgxy">
            <rect x="0.0" y="0.0" width="316.7179545454545" height="234.5">
            </rect>
          </clipPath>
        </defs>
        <g>
          <path d="M14.396270661157025 144.29163297902954 L14.396270661157025 144.29163297902954 L15.55259762189253 144.61104757281387 L16.708924582628033 144.08077193146192 L17.865251543363538 144.16851206754075 L19.02157850409904 144.0755908756516 L20.177905464834545 144.21815197494033 L21.33423242557005 143.48480547904856 L22.490559386305556 142.43593669770578 L23.646886347041058 142.29458296106316 L24.80321330777656 142.08382335876388 L25.959540268512065 142.17440104502057 L27.11586722924757 141.8740177081967 L28.272194189983075 141.91273358839365 L29.42852115071858 141.23928954404397 L30.58484811145408 141.37979771534117 L31.741175072189584 141.35583629242373 L32.89750203292509 141.664083288237 L34.053828993660595 142.28263101506738 L35.2101559543961 142.31053432797694 L36.3664829151316 141.96878752432286 L37.522809875867104 142.02953666650876 L38.67913683660261 142.55146124207246 L39.835463797338114 142.22019637432237 L40.99179075807362 142.16311615811816 L42.148117718809125 142.85404944082222 L43.30444467954462 142.99288359983942 L44.46077164028013 143.1270770427848 L45.617098601015634 143.24549786033955 L46.77342556175114 143.86669870126653 L47.92975252248664 143.82529567974387 L49.08607948322214 143.78972513192667 L50.24240644395765 143.80368847986523 L51.398733404693154 143.53702916556784 L52.55506036542866 143.7175949430118 L53.71138732616416 144.1008712397491 L54.86771428689966 144.88435253603566 L56.02404124763517 144.4291411758584 L57.18036820837067 144.40325411662837 L58.33669516910618 144.28045467895984 L59.49302212984168 144.76675397753812 L60.64934909057718 144.91803868423057 L61.80567605131269 145.32738250378267 L62.96200301204819 144.7551851263899 L64.1183299727837 145.0473535199118 L65.27465693351921 144.1880858125475 L66.43098389425471 144.52849124362743 L67.5873108549902 144.48239430632646 L68.74363781572572 144.74430522962294 L69.89996477646122 144.4584045916671 L71.05629173719673 145.22073814398536 L72.21261869793223 145.20105328686464 L73.36894565866773 145.13727086785357 L74.52527261940324 144.90221706855678 L75.68159958013874 144.61037379233497 L76.83792654087425 144.19461590232913 L77.99425350160975 144.19853663903334 L79.15058046234525 144.23845209089737 L80.30690742308076 143.9216685105677 L81.46323438381626 143.9287144228576 L82.61956134455176 143.95822224836027 L83.77588830528727 143.5096490229284 L84.93221526602277 143.07456783132977 L86.08854222675828 143.27052642247986 L87.24486918749378 143.29376324270228 L88.40119614822927 144.01613654450944 L89.55752310896479 144.07170483571457 L90.71385006970029 144.31665212266614 L91.8701770304358 144.73547257971734 L93.0265039911713 144.18547388251804 L94.1828309519068 144.6609530402 L95.3391579126423 145.41985861239294 L96.4954848733778 145.1842034663791 L97.65181183411332 145.03138335229062 L98.80813879484882 144.83568833169903 L99.96446575558431 145.11840235740945 L101.12079271631983 145.0223643834468 L102.27711967705532 145.33163689599056 L103.43344663779084 145.46418095413742 L104.58977359852634 145.74921336508356 L105.74610055926183 146.0611616247907 L106.90242751999735 145.48496086590464 L108.05875448073284 145.45630681780804 L109.21508144146836 144.90221706855675 L110.37140840220385 144.37278227529845 L111.52773536293937 144.62990971145317 L112.68406232367487 144.19396308770598 L113.84038928441036 144.30874657080503 L114.99671624514588 144.1242481741914 L116.15304320588137 144.303478361314 L117.30937016661689 144.20899438831233 L118.46569712735239 144.38933447676038 L119.62202408808788 143.97557152276426 L120.7783510488234 143.86542261083218 L121.9346780095589 144.054235650575 L123.0910049702944 144.03743297286331 L124.2473319310299 143.92679227381353 L125.4036588917654 143.77007362034007 L126.55998585250092 144.5767567731657 L127.71631281323641 144.87199931116567 L128.87263977397194 144.9442192683432 L130.02896673470744 144.87886053885111 L131.18529369544294 145.10095469702404 L132.34162065617843 144.45441055943476 L133.49794761691393 144.75790691479125 L134.65427457764946 144.40391688620284 L135.81060153838496 144.2292809909541 L136.96692849912046 144.31467529451191 L138.12325545985595 144.44576101089484 L139.27958242059145 143.89223849426887 L140.43590938132698 143.9095050720375 L141.59223634206248 144.37807695701352 L142.74856330279798 144.48773112876344 L143.90489026353347 143.2625854037069 L145.06121722426897 143.293151596438 L146.21754418500447 143.5202220881542 L147.37387114574 143.52831147993086 L148.5301981064755 143.43648795968852 L149.686525067211 143.65902871289526 L150.8428520279465 143.23208662059426 L151.999178988682 143.27663721757568 L153.15550594941752 143.65965770019184 L154.31183291015302 143.88329406642856 L155.4681598708885 143.77387485778982 L156.624486831624 143.9428188862062 L157.7808137923595 143.2430589234817 L158.93714075309504 143.63830761614423 L160.09346771383053 143.7998791034045 L161.24979467456603 143.81067547614933 L162.40612163530153 144.34105774012897 L163.56244859603703 144.65622494837967 L164.71877555677256 144.167860483957 L165.87510251750805 144.1933102385814 L167.03142947824355 144.4557421081853 L168.18775643897905 144.03807947336702 L169.34408339971455 144.12554733356995 L170.50041036045008 144.13269882687814 L171.65673732118557 143.41733169840955 L172.81306428192107 143.98393178350784 L173.96939124265657 143.47612070354143 L175.12571820339207 143.4284510971574 L176.2820451641276 143.24366835820175 L177.4383721248631 143.03847135176062 L178.5946990855986 143.0156582412296 L179.7510260463341 141.99662105434825 L180.9073530070696 141.77769914970185 L182.06367996780511 141.53737161738826 L183.2200069285406 141.58975676098416 L184.3763338892761 142.4526276511162 L185.5326608500116 142.56887363514872 L186.6889878107471 141.49162944598783 L187.84531477148263 141.66843601733254 L189.00164173221813 141.6858597749228 L190.15796869295363 141.09288421236573 L191.31429565368913 141.7541341799116 L192.47062261442463 141.51690340281544 L193.62694957516015 140.97800531276812 L194.78327653589565 140.6415094906372 L195.93960349663115 140.60215849137182 L197.09593045736665 140.85945153896952 L198.25225741810215 141.8955746486431 L199.40858437883767 141.55840898569278 L200.56491133957317 141.6913096675 L201.72123830030867 142.83331407183667 L202.87756526104417 142.10627146911006 L204.0338922217797 141.99662105434825 L205.1902191825152 141.871256253721 L206.3465461432507 142.0496594243612 L207.5028731039862 144.22731562959663 L208.6592000647217 144.29887096542382 L209.81552702545721 144.3120403364414 L210.9718539861927 144.17960027852502 L212.1281809469282 144.37145868997519 L213.2845079076637 144.113853315823 L214.4408348683992 144.0142022714685 L215.59716182913473 142.7689380077855 L216.75348878987023 142.2434349466815 L217.90981575060573 142.12088218711634 L219.06614271134123 142.1265062741392 L220.22246967207673 142.1186337210027 L221.37879663281225 141.84973710241843 L222.53512359354775 141.63202511423023 L223.69145055428325 141.234542743483 L224.84777751501875 141.29691065996812 L226.00410447575425 141.44496773945494 L227.16043143648977 142.13269509757814 L228.31675839722527 142.4930010214461 L229.47308535796077 142.03177069205145 L230.62941231869627 141.9193812444273 L231.78573927943177 142.6662042869841 L232.9420662401673 142.4313356135871 L234.0983932009028 142.33049993026836 L235.2547201616383 142.18117576743953 L236.4110471223738 142.85345604665127 L237.56737408310929 143.04147602114233 L238.7237010438448 143.48294410732888 L239.8800280045803 143.53765262835776 L241.0363549653158 143.9171855979817 L242.1926819260513 143.55323430855827 L243.3490088867868 143.8074989694485 L244.50533584752233 143.71380914151405 L245.66166280825783 143.82275226240392 L246.81798976899333 143.73654033314588 L247.97431672972883 144.1756858844922 L249.13064369046432 144.9483573178225 L250.28697065119985 144.45640746464755 L251.44329761193535 144.36087740815734 L252.59962457267085 144.59691737870497 L253.75595153340635 144.68665091132183 L254.91227849414184 145.0112724010267 L256.0686054548774 144.85074933858198 L257.2249324156129 144.75858696931203 L258.3812593763484 144.25812416433862 L259.5375863370839 144.09373611723268 L260.6939132978194 144.3926474945105 L261.8502402585549 144.41386781802981 L263.0065672192904 144.87131262786662 L264.1628941800259 144.9249227974089 L265.3192211407614 145.11072267474532 L266.4755481014969 145.0730845636318 L267.63187506223244 144.9649221160117 L268.78820202296794 144.84869467664566 L269.94452898370344 144.5338458882413 L271.10085594443893 143.99744910053678 L272.25718290517443 144.0032458324691 L273.41350986590993 143.50840645031752 L274.5698368266454 143.99873736808655 L275.7261637873809 144.29294795918676 L276.8824907481164 143.68418844817234 L278.0388177088519 143.6810408588955 L279.1951446695874 143.0703521359099 L280.3514716303229 143.11317630011462 L281.5077985910585 143.75614415465472 L282.664125551794 143.92230866100326 L283.82045251252947 144.0426007838987 L284.97677947326497 144.49640797700525 L286.13310643400047 144.59960718366702 L287.28943339473597 144.30479545600906 L288.44576035547146 144.85897097181274 L289.60208731620696 145.49213420227764 L290.75841427694246 145.23904276238179 L291.91474123767796 144.70493913316247 L293.0710681984135 145.21792471745653 L294.227395159149 145.11979940101762 L295.3837221198845 144.99465202477057 L296.54004908062 145.37140898275493 L297.6963760413555 145.96208457462112 L298.852703002091 145.89913407535533 L300.0090299628265 145.6197145379439 L301.165356923562 145.3373117867044 L302.3216838842975 145.42057201066243 " fill="none" stroke-width="1.0" stroke="rgb(102,194,165)" stroke-opacity="1.0">
          </path>
        </g>
        <g>
          <path d="M14.396270661157025 183.6647199808699 L14.396270661157025 183.6647199808699 L15.55259762189253 178.52433820263772 L16.708924582628033 176.42195995217696 L17.865251543363538 164.61626593289895 L19.02157850409904 168.83198040105216 L20.177905464834545 167.55167711111855 L21.33423242557005 146.7403248571501 L22.490559386305556 146.3666406522796 L23.646886347041058 139.56855534781994 L24.80321330777656 127.35001270642408 L25.959540268512065 121.8025914422035 L27.11586722924757 118.56764946499175 L28.272194189983075 123.13452756772297 L29.42852115071858 120.0823715904151 L30.58484811145408 130.15828166365574 L31.741175072189584 115.30822396246603 L32.89750203292509 116.32931067857567 L34.053828993660595 110.97359205696245 L35.2101559543961 114.34264891697433 L36.3664829151316 108.85965662552088 L37.522809875867104 107.8748424733763 L38.67913683660261 114.0969015180747 L39.835463797338114 105.45165165732965 L40.99179075807362 109.7563620096239 L42.148117718809125 103.64676402212572 L43.30444467954462 109.18635817425036 L44.46077164028013 108.38995628295577 L45.617098601015634 110.784730123597 L46.77342556175114 109.40674721028452 L47.92975252248664 105.37081355447444 L49.08607948322214 106.27149806433005 L50.24240644395765 101.4803295232949 L51.398733404693154 107.00079737597719 L52.55506036542866 103.36938123015668 L53.71138732616416 107.292019156761 L54.86771428689966 112.8350750855338 L56.02404124763517 115.84736756990897 L57.18036820837067 107.28671020893538 L58.33669516910618 108.21143698270988 L59.49302212984168 110.65035396639142 L60.64934909057718 110.05608098806559 L61.80567605131269 114.33732143910126 L62.96200301204819 112.32074965593586 L64.1183299727837 109.88886271843515 L65.27465693351921 112.43894766863045 L66.43098389425471 109.87780282239515 L67.5873108549902 115.62737048924569 L68.74363781572572 112.50480067357805 L69.89996477646122 106.11366194545141 L71.05629173719673 111.40345950227224 L72.21261869793223 112.17957119763821 L73.36894565866773 106.94764679667647 L74.52527261940324 103.82169939162601 L75.68159958013874 107.3976145577127 L76.83792654087425 106.45685413656702 L77.99425350160975 108.69839841892787 L79.15058046234525 108.9728575083563 L80.30690742308076 112.26031274701784 L81.46323438381626 108.19685782414031 L82.61956134455176 109.51955614853335 L83.77588830528727 111.3805173965523 L84.93221526602277 111.13070810821678 L86.08854222675828 108.467981878176 L87.24486918749378 105.65539405870828 L88.40119614822927 105.99737552914172 L89.55752310896479 105.38731780470272 L90.71385006970029 105.6853246428328 L91.8701770304358 105.77868290281239 L93.0265039911713 106.56552863502765 L94.1828309519068 108.41535547739578 L95.3391579126423 106.60662257779569 L96.4954848733778 105.56894146297287 L97.65181183411332 106.05720958875084 L98.80813879484882 109.4899479278213 L99.96446575558431 103.57813965649828 L101.12079271631983 108.99806529450524 L102.27711967705532 108.22510584701163 L103.43344663779084 107.85559495184086 L104.58977359852634 108.89488345100818 L105.74610055926183 108.08400815543794 L106.90242751999735 110.73854955423653 L108.05875448073284 106.40844653072455 L109.21508144146836 110.32620383354967 L110.37140840220385 109.41173586575853 L111.52773536293937 111.393495446038 L112.68406232367487 112.13664898864525 L113.84038928441036 110.03475109115578 L114.99671624514588 112.02880167658472 L116.15304320588137 109.87736669225008 L117.30937016661689 111.53289455036223 L118.46569712735239 110.51756702933042 L119.62202408808788 112.92726164028184 L120.7783510488234 111.39219602493644 L121.9346780095589 112.50881509450411 L123.0910049702944 110.8658769937511 L124.2473319310299 111.69632499203105 L125.4036588917654 112.92201048320388 L126.55998585250092 113.75970471276082 L127.71631281323641 112.15210978719418 L128.87263977397194 111.12193664145289 L130.02896673470744 112.40645237459509 L131.18529369544294 112.61449398378642 L132.34162065617843 114.23163011809484 L133.49794761691393 113.78006790772658 L134.65427457764946 114.90948991020956 L135.81060153838496 115.01722346317172 L136.96692849912046 114.50835613221487 L138.12325545985595 115.71260278229268 L139.27958242059145 116.5157112099266 L140.43590938132698 115.48636145941661 L141.59223634206248 117.0559725909949 L142.74856330279798 115.62593775517699 L143.90489026353347 117.75446976821502 L145.06121722426897 117.47841500345723 L146.21754418500447 116.62541829423517 L147.37387114574 116.78873773372666 L148.5301981064755 118.26495582229958 L149.686525067211 118.933644181673 L150.8428520279465 118.51172964836216 L151.999178988682 118.38431492016916 L153.15550594941752 120.92904441212582 L154.31183291015302 119.22729414602841 L155.4681598708885 119.47826104443817 L156.624486831624 124.36593182498542 L157.7808137923595 121.98176051400506 L158.93714075309504 121.83593052674227 L160.09346771383053 121.61976182068817 L161.24979467456603 122.27373392841794 L162.40612163530153 122.04663353227187 L163.56244859603703 123.21501359891829 L164.71877555677256 124.25760018110984 L165.87510251750805 125.62973649333588 L167.03142947824355 124.71225872611737 L168.18775643897905 126.23648653950218 L169.34408339971455 127.9722417896739 L170.50041036045008 125.78728039815519 L171.65673732118557 126.95907109817517 L172.81306428192107 126.8679310996115 L173.96939124265657 127.49323048471156 L175.12571820339207 127.58425274149323 L176.2820451641276 129.208007656087 L177.4383721248631 128.99399561736934 L178.5946990855986 128.6988989610311 L179.7510260463341 129.1217255976896 L180.9073530070696 131.2886837311332 L182.06367996780511 130.28028094529228 L183.2200069285406 129.6492315228202 L184.3763338892761 130.73345699280824 L185.5326608500116 130.89490842433383 L186.6889878107471 131.94938347624282 L187.84531477148263 132.65147719703486 L189.00164173221813 132.97835286703483 L190.15796869295363 133.48181848443693 L191.31429565368913 134.21071639638546 L192.47062261442463 135.01779226954085 L193.62694957516015 135.87585441136505 L194.78327653589565 135.94772935295506 L195.93960349663115 135.9037987626032 L197.09593045736665 136.85583112879132 L198.25225741810215 137.19788789498787 L199.40858437883767 137.63295333448897 L200.56491133957317 138.28493330787785 L201.72123830030867 139.27233089419087 L202.87756526104417 139.9489772927987 L204.0338922217797 140.4976439461968 L205.1902191825152 141.80635838410433 L206.3465461432507 141.74032852936526 L207.5028731039862 77.32184098966637 L208.6592000647217 81.4226563705156 L209.81552702545721 79.33248533575625 L210.9718539861927 79.69314999876434 L212.1281809469282 82.6294734107867 L213.2845079076637 79.77912562717287 L214.4408348683992 79.6499326612932 L215.59716182913473 80.7996779766057 L216.75348878987023 83.00978538368372 L217.90981575060573 81.8723193942908 L219.06614271134123 83.152577880402 L220.22246967207673 80.18395284535063 L221.37879663281225 82.57281621681551 L222.53512359354775 87.90900635384074 L223.69145055428325 89.6482325163367 L224.84777751501875 86.45834264890806 L226.00410447575425 87.83883406557536 L227.16043143648977 96.02926037586505 L228.31675839722527 89.36610699677709 L229.47308535796077 90.32728013931089 L230.62941231869627 86.33647800278987 L231.78573927943177 88.9655089723145 L232.9420662401673 90.19825937874519 L234.0983932009028 90.58743281858017 L235.2547201616383 87.80432561565709 L236.4110471223738 89.82063736420481 L237.56737408310929 90.17400274412775 L238.7237010438448 87.84060962199007 L239.8800280045803 91.63573440981777 L241.0363549653158 89.20629913232334 L242.1926819260513 90.73563344424502 L243.3490088867868 90.90367369567053 L244.50533584752233 88.10999048928272 L245.66166280825783 91.61494057801391 L246.81798976899333 90.94821731547412 L247.97431672972883 94.25884888961602 L249.13064369046432 93.34654666083614 L250.28697065119985 91.96484959280019 L251.44329761193535 90.63278281828082 L252.59962457267085 89.53679830509896 L253.75595153340635 92.96670273910419 L254.91227849414184 92.57142904856434 L256.0686054548774 91.85237372191162 L257.2249324156129 94.27124602971178 L258.3812593763484 93.86842565339197 L259.5375863370839 96.39486154728905 L260.6939132978194 94.68272576575579 L261.8502402585549 93.28956344072236 L263.0065672192904 96.84383856081487 L264.1628941800259 96.81683745057047 L265.3192211407614 93.70381803439318 L266.4755481014969 94.44876752782412 L267.63187506223244 94.74683182800993 L268.78820202296794 96.58101529956471 L269.94452898370344 99.98477521367406 L271.10085594443893 101.30678722130872 L272.25718290517443 99.09801515367813 L273.41350986590993 100.15131770717119 L274.5698368266454 96.77953611557163 L275.7261637873809 100.68175526714666 L276.8824907481164 98.50509079404196 L278.0388177088519 101.978859805741 L279.1951446695874 101.76566898383561 L280.3514716303229 102.2339391046846 L281.5077985910585 102.89744324761602 L282.664125551794 101.53255722043295 L283.82045251252947 100.39776213280177 L284.97677947326497 101.7847711541313 L286.13310643400047 101.3712149039333 L287.28943339473597 103.92050329848635 L288.44576035547146 105.41169964366796 L289.60208731620696 105.48417808418948 L290.75841427694246 105.52820145438781 L291.91474123767796 103.78457104432871 L293.0710681984135 105.01599000449926 L294.227395159149 105.00769292856312 L295.3837221198845 104.12263320496504 L296.54004908062 104.46495300143265 L297.6963760413555 107.34838548102138 L298.852703002091 106.7044014782977 L300.0090299628265 107.63373835350467 L301.165356923562 107.4678757277437 L302.3216838842975 106.91716018305013 " fill="none" stroke-width="1.0" stroke="rgb(252,141,98)" stroke-opacity="1.0">
          </path>
        </g>
        <g>
          <path d="M14.396270661157025 27.740657204476094 L14.396270661157025 27.740657204476094 L15.55259762189253 30.65170290031145 L16.708924582628033 31.64457956610903 L17.865251543363538 31.97563772932851 L19.02157850409904 32.2842753095227 L20.177905464834545 32.837448161293565 L21.33423242557005 31.166418377871082 L22.490559386305556 33.51648043663275 L23.646886347041058 34.33740535439166 L24.80321330777656 32.335357058047094 L25.959540268512065 34.03975014088836 L27.11586722924757 34.61320612801602 L28.272194189983075 35.08023605254189 L29.42852115071858 37.27955551483777 L30.58484811145408 35.33153754597437 L31.741175072189584 36.0745234039038 L32.89750203292509 35.79204422876285 L34.053828993660595 38.907726191608575 L35.2101559543961 38.46366928504584 L36.3664829151316 38.93519070168108 L37.522809875867104 38.63789368138052 L38.67913683660261 39.85510747109207 L39.835463797338114 39.203497144659565 L40.99179075807362 40.42936861252805 L42.148117718809125 41.52865679073595 L43.30444467954462 41.037135038650334 L44.46077164028013 41.389083864151175 L45.617098601015634 43.359765592598734 L46.77342556175114 44.16288196671829 L47.92975252248664 44.55211151866834 L49.08607948322214 44.78406742873585 L50.24240644395765 44.90672913405244 L51.398733404693154 45.15081804139072 L52.55506036542866 45.064832269593765 L53.71138732616416 45.96097380339809 L54.86771428689966 46.958097829248985 L56.02404124763517 48.24913388230003 L57.18036820837067 48.9570567300988 L58.33669516910618 47.35787849667466 L59.49302212984168 48.93576924571882 L60.64934909057718 49.05134194135708 L61.80567605131269 50.85676076112344 L62.96200301204819 51.32736820086457 L64.1183299727837 52.19353444846659 L65.27465693351921 52.42187773274286 L66.43098389425471 53.63842891513973 L67.5873108549902 54.87017989813138 L68.74363781572572 55.62530992334274 L69.89996477646122 56.196777806255824 L71.05629173719673 57.02310470894372 L72.21261869793223 56.908107202049166 L73.36894565866773 58.339590178380575 L74.52527261940324 58.49886842203898 L75.68159958013874 58.908741566876344 L76.83792654087425 58.895362629568595 L77.99425350160975 60.11158086307684 L79.15058046234525 59.424131540827446 L80.30690742308076 61.760316193820955 L81.46323438381626 62.295147817671165 L82.61956134455176 63.497652105339355 L83.77588830528727 63.739633760300805 L84.93221526602277 64.27433145972036 L86.08854222675828 65.80290167705775 L87.24486918749378 66.27210023461024 L88.40119614822927 67.50656050617246 L89.55752310896479 68.04157939000036 L90.71385006970029 68.1648021424103 L91.8701770304358 69.06533414569805 L93.0265039911713 69.61473114278243 L94.1828309519068 69.35450607048782 L95.3391579126423 70.05017020746745 L96.4954848733778 71.6953211052737 L97.65181183411332 71.40137943189411 L98.80813879484882 71.78815006777636 L99.96446575558431 73.4675305778443 L101.12079271631983 73.976084476119 L102.27711967705532 73.78981068014241 L103.43344663779084 74.2906862225337 L104.58977359852634 76.03142372151885 L105.74610055926183 77.88452273755652 L106.90242751999735 77.98753169946274 L108.05875448073284 79.19377669887254 L109.21508144146836 79.71879471386487 L110.37140840220385 80.43674594775298 L111.52773536293937 81.52492970850254 L112.68406232367487 81.49340322084225 L113.84038928441036 81.38707625127292 L114.99671624514588 83.96633547280678 L116.15304320588137 83.23275808069985 L117.30937016661689 84.85121158843616 L118.46569712735239 84.57167625665193 L119.62202408808788 84.99815120509768 L120.7783510488234 86.33476707310376 L121.9346780095589 86.09326558138234 L123.0910049702944 86.85212652480436 L124.2473319310299 87.26899321776105 L125.4036588917654 87.87386125066769 L126.55998585250092 89.2565194469412 L127.71631281323641 89.35969500327144 L128.87263977397194 90.3121349960261 L130.02896673470744 90.72173052908607 L131.18529369544294 91.68609647908055 L132.34162065617843 92.18292167659854 L133.49794761691393 93.32486325211988 L134.65427457764946 93.97906856763711 L135.81060153838496 94.54010255856558 L136.96692849912046 95.43685442773716 L138.12325545985595 95.53503480541626 L139.27958242059145 97.0294506219303 L140.43590938132698 97.12156217061082 L141.59223634206248 97.52969439412871 L142.74856330279798 98.10511045991237 L143.90489026353347 99.2538866197265 L145.06121722426897 100.44348934660746 L146.21754418500447 100.52182326377687 L147.37387114574 100.88562154258372 L148.5301981064755 101.55574009180128 L149.686525067211 103.09019733389485 L150.8428520279465 102.64074783541486 L151.999178988682 103.19028669709567 L153.15550594941752 103.93900663885802 L154.31183291015302 104.51293780992737 L155.4681598708885 105.11306730281441 L156.624486831624 105.2607462916438 L157.7808137923595 106.53379376149648 L158.93714075309504 106.91681646346177 L160.09346771383053 108.24338587024707 L161.24979467456603 109.08395032716152 L162.40612163530153 109.65753120517546 L163.56244859603703 110.17864853704222 L164.71877555677256 111.76081194643955 L165.87510251750805 112.5915086123359 L167.03142947824355 113.75270698045694 L168.18775643897905 115.24568496951713 L169.34408339971455 115.6579079101506 L170.50041036045008 116.28197569494124 L171.65673732118557 117.32527886983091 L172.81306428192107 118.07188669933288 L173.96939124265657 118.49711296362258 L175.12571820339207 118.85350744576681 L176.2820451641276 119.72649711833817 L177.4383721248631 120.69505732068909 L178.5946990855986 120.62664625020386 L179.7510260463341 121.42245462362317 L180.9073530070696 122.07981769647304 L182.06367996780511 122.43828785637436 L183.2200069285406 123.3082362881777 L184.3763338892761 124.4249550144778 L185.5326608500116 125.01117757341808 L186.6889878107471 126.09330351940785 L187.84531477148263 126.51575240864197 L189.00164173221813 127.05987022598416 L190.15796869295363 128.34733688956092 L191.31429565368913 129.0731994232 L192.47062261442463 130.61116622078913 L193.62694957516015 131.53033305289676 L194.78327653589565 132.08682041580747 L195.93960349663115 132.59768236821697 L197.09593045736665 133.56961702702665 L198.25225741810215 134.49752668197334 L199.40858437883767 135.0229606107138 L200.56491133957317 136.2121055044945 L201.72123830030867 137.30592715886365 L202.87756526104417 138.9011269157088 L204.0338922217797 139.69381197517671 L205.1902191825152 141.157134721166 L206.3465461432507 141.55734417234723 L207.5028731039862 25.556647546780553 L208.6592000647217 25.383974053550332 L209.81552702545721 25.880736508662466 L210.9718539861927 26.3818012449768 L212.1281809469282 27.575950286431336 L213.2845079076637 27.24923343678678 L214.4408348683992 28.652951048987305 L215.59716182913473 29.998258352743548 L216.75348878987023 29.40201541029508 L217.90981575060573 30.007393522799177 L219.06614271134123 30.0554930932678 L220.22246967207673 31.501621635847073 L221.37879663281225 32.34810217944771 L222.53512359354775 32.258470935096454 L223.69145055428325 33.47610625865876 L224.84777751501875 33.92121238383217 L226.00410447575425 34.82184231142128 L227.16043143648977 34.83484455214132 L228.31675839722527 37.030398314046536 L229.47308535796077 36.419026370823545 L230.62941231869627 37.00742784271722 L231.78573927943177 37.875944926932746 L232.9420662401673 38.34849877807983 L234.0983932009028 39.03961192742507 L235.2547201616383 39.396594457797235 L236.4110471223738 40.29558577682981 L237.56737408310929 41.30358911141953 L238.7237010438448 41.901242549297436 L239.8800280045803 42.07538378025497 L241.0363549653158 43.175891171516284 L242.1926819260513 43.816866602366375 L243.3490088867868 43.91309717286914 L244.50533584752233 44.21270814908314 L245.66166280825783 44.31101580097999 L246.81798976899333 44.99221708677574 L247.97431672972883 44.74915890380208 L249.13064369046432 45.13281943674312 L250.28697065119985 46.743798777478915 L251.44329761193535 47.25313931873005 L252.59962457267085 48.13471121157207 L253.75595153340635 48.61025731916929 L254.91227849414184 49.02340479259516 L256.0686054548774 50.086349445231164 L257.2249324156129 51.140081335127945 L258.3812593763484 52.9766135415267 L259.5375863370839 52.80206063116458 L260.6939132978194 53.46646684208919 L261.8502402585549 54.38728652663164 L263.0065672192904 54.44224068616802 L264.1628941800259 56.57924575267066 L265.3192211407614 57.59722031838338 L266.4755481014969 57.250601162368966 L267.63187506223244 58.428966772216754 L268.78820202296794 58.973455662292565 L269.94452898370344 59.13573004598929 L271.10085594443893 59.9228349945206 L272.25718290517443 60.610656996463874 L273.41350986590993 60.82376653248629 L274.5698368266454 62.92500239692167 L275.7261637873809 63.27891857495459 L276.8824907481164 63.794676581673755 L278.0388177088519 63.6958403767201 L279.1951446695874 64.39406960697836 L280.3514716303229 66.58229245763728 L281.5077985910585 67.11565991212422 L282.664125551794 67.82584293961767 L283.82045251252947 68.08940396131909 L284.97677947326497 68.52575263044862 L286.13310643400047 68.89043628765081 L287.28943339473597 69.8694571567598 L288.44576035547146 69.93263461761607 L289.60208731620696 70.43202110563183 L290.75841427694246 71.37405924964686 L291.91474123767796 71.78841349170202 L293.0710681984135 72.6251829963935 L294.227395159149 73.75317021408362 L295.3837221198845 74.59587107734087 L296.54004908062 75.00019342834987 L297.6963760413555 74.60682768476912 L298.852703002091 76.75513865741817 L300.0090299628265 77.98489150270338 L301.165356923562 78.49556766290789 L302.3216838842975 79.12147272074522 " fill="none" stroke-width="1.0" stroke="rgb(141,160,203)" stroke-opacity="1.0">
          </path>
        </g>
      </g>
    </g>
    <g transform="translate(31.928522727272707 57.0 ) ">
      <rect x="347.13795454545453" y="244.5" height="234.5" width="18.0" stroke-width="0.0" fill="rgb(217,217,217)" fill-opacity="1.0" stroke="rgb(71,71,71)" stroke-opacity="1.0">
      </rect>
      <g transform="translate(356.13795454545453 361.75 ) rotate(90.0 ) ">
        <text class="facet-strip-text-y" text-anchor="middle" dy="0.35em">
        single
        </text>
      </g>
      <rect x="24.42" y="244.5" height="234.5" width="316.7179545454545" stroke="rgb(71,71,71)" stroke-opacity="1.0" stroke-width="0.0" fill="rgb(235,235,235)" fill-opacity="1.0">
      </rect>
      <g transform="translate(24.42 479.0 ) ">
        <line x1="42.148117718809125" y1="-0.0" x2="42.148117718809125" y2="-234.5" stroke="rgb(255,255,255)" stroke-opacity="1.0" stroke-width="0.5">
        </line>
        <line x1="99.96446575558434" y1="-0.0" x2="99.96446575558434" y2="-234.5" stroke="rgb(255,255,255)" stroke-opacity="1.0" stroke-width="0.5">
        </line>
        <line x1="157.78081379235954" y1="-0.0" x2="157.78081379235954" y2="-234.5" stroke="rgb(255,255,255)" stroke-opacity="1.0" stroke-width="0.5">
        </line>
        <line x1="215.59716182913473" y1="-0.0" x2="215.59716182913473" y2="-234.5" stroke="rgb(255,255,255)" stroke-opacity="1.0" stroke-width="0.5">
        </line>
        <line x1="273.41350986590993" y1="-0.0" x2="273.41350986590993" y2="-234.5" stroke="rgb(255,255,255)" stroke-opacity="1.0" stroke-width="0.5">
        </line>
        <line x1="13.239943700421522" y1="-0.0" x2="13.239943700421522" y2="-234.5" stroke="rgb(255,255,255)" stroke-opacity="1.0" stroke-width="1.4">
        </line>
        <line x1="71.05629173719673" y1="-0.0" x2="71.05629173719673" y2="-234.5" stroke="rgb(255,255,255)" stroke-opacity="1.0" stroke-width="1.4">
        </line>
        <line x1="128.87263977397194" y1="-0.0" x2="128.87263977397194" y2="-234.5" stroke="rgb(255,255,255)" stroke-opacity="1.0" stroke-width="1.4">
        </line>
        <line x1="186.6889878107471" y1="-0.0" x2="186.6889878107471" y2="-234.5" stroke="rgb(255,255,255)" stroke-opacity="1.0" stroke-width="1.4">
        </line>
        <line x1="244.50533584752233" y1="-0.0" x2="244.50533584752233" y2="-234.5" stroke="rgb(255,255,255)" stroke-opacity="1.0" stroke-width="1.4">
        </line>
        <line x1="302.3216838842975" y1="-0.0" x2="302.3216838842975" y2="-234.5" stroke="rgb(255,255,255)" stroke-opacity="1.0" stroke-width="1.4">
        </line>
        <g transform="translate(13.239943700421522 0.0 ) ">
          <line stroke-width="1.4" stroke="rgb(71,71,71)" stroke-opacity="1.0" x2="0.0" y2="4.0">
          </line>
          <g transform="translate(0.0 7.0 ) ">
            <text class="axis-text-x" text-anchor="middle" dy="0.7em">
            0
            </text>
          </g>
        </g>
        <g transform="translate(71.05629173719673 0.0 ) ">
          <line stroke-width="1.4" stroke="rgb(71,71,71)" stroke-opacity="1.0" x2="0.0" y2="4.0">
          </line>
          <g transform="translate(0.0 7.0 ) ">
            <text class="axis-text-x" text-anchor="middle" dy="0.7em">
            50
            </text>
          </g>
        </g>
        <g transform="translate(128.87263977397194 0.0 ) ">
          <line stroke-width="1.4" stroke="rgb(71,71,71)" stroke-opacity="1.0" x2="0.0" y2="4.0">
          </line>
          <g transform="translate(0.0 7.0 ) ">
            <text class="axis-text-x" text-anchor="middle" dy="0.7em">
            100
            </text>
          </g>
        </g>
        <g transform="translate(186.6889878107471 0.0 ) ">
          <line stroke-width="1.4" stroke="rgb(71,71,71)" stroke-opacity="1.0" x2="0.0" y2="4.0">
          </line>
          <g transform="translate(0.0 7.0 ) ">
            <text class="axis-text-x" text-anchor="middle" dy="0.7em">
            150
            </text>
          </g>
        </g>
        <g transform="translate(244.50533584752233 0.0 ) ">
          <line stroke-width="1.4" stroke="rgb(71,71,71)" stroke-opacity="1.0" x2="0.0" y2="4.0">
          </line>
          <g transform="translate(0.0 7.0 ) ">
            <text class="axis-text-x" text-anchor="middle" dy="0.7em">
            200
            </text>
          </g>
        </g>
        <g transform="translate(302.3216838842975 0.0 ) ">
          <line stroke-width="1.4" stroke="rgb(71,71,71)" stroke-opacity="1.0" x2="0.0" y2="4.0">
          </line>
          <g transform="translate(0.0 7.0 ) ">
            <text class="axis-text-x" text-anchor="middle" dy="0.7em">
            250
            </text>
          </g>
        </g>
      </g>
      <g transform="translate(24.42 244.5 ) ">
        <line x1="0.0" y1="176.78397919269707" x2="316.7179545454545" y2="176.78397919269707" stroke="rgb(255,255,255)" stroke-opacity="1.0" stroke-width="0.5">
        </line>
        <line x1="0.0" y1="107.63716584013508" x2="316.7179545454545" y2="107.63716584013508" stroke="rgb(255,255,255)" stroke-opacity="1.0" stroke-width="0.5">
        </line>
        <line x1="0.0" y1="38.49035248757309" x2="316.7179545454545" y2="38.49035248757309" stroke="rgb(255,255,255)" stroke-opacity="1.0" stroke-width="0.5">
        </line>
        <line x1="0.0" y1="211.35738586897807" x2="316.7179545454545" y2="211.35738586897807" stroke="rgb(255,255,255)" stroke-opacity="1.0" stroke-width="1.4">
        </line>
        <line x1="0.0" y1="142.21057251641608" x2="316.7179545454545" y2="142.21057251641608" stroke="rgb(255,255,255)" stroke-opacity="1.0" stroke-width="1.4">
        </line>
        <line x1="0.0" y1="73.06375916385409" x2="316.7179545454545" y2="73.06375916385409" stroke="rgb(255,255,255)" stroke-opacity="1.0" stroke-width="1.4">
        </line>
        <g transform="translate(0.0 211.35738586897807 ) ">
          <line stroke-width="1.4" stroke="rgb(71,71,71)" stroke-opacity="1.0" x2="-4.0" y2="0.0">
          </line>
          <g transform="translate(-7.0 0.0 ) ">
            <text class="axis-text-y" text-anchor="end" dy="0.35em">
            -5
            </text>
          </g>
        </g>
        <g transform="translate(0.0 142.21057251641608 ) ">
          <line stroke-width="1.4" stroke="rgb(71,71,71)" stroke-opacity="1.0" x2="-4.0" y2="0.0">
          </line>
          <g transform="translate(-7.0 0.0 ) ">
            <text class="axis-text-y" text-anchor="end" dy="0.35em">
            0
            </text>
          </g>
        </g>
        <g transform="translate(0.0 73.06375916385409 ) ">
          <line stroke-width="1.4" stroke="rgb(71,71,71)" stroke-opacity="1.0" x2="-4.0" y2="0.0">
          </line>
          <g transform="translate(-7.0 0.0 ) ">
            <text class="axis-text-y" text-anchor="end" dy="0.35em">
            5
            </text>
          </g>
        </g>
        <g transform="translate(0.0 3.916945811292095 ) ">
          <line stroke-width="1.4" stroke="rgb(71,71,71)" stroke-opacity="1.0" x2="-4.0" y2="0.0">
          </line>
          <g transform="translate(-7.0 0.0 ) ">
            <text class="axis-text-y" text-anchor="end" dy="0.35em">
            10
            </text>
          </g>
        </g>
      </g>
      <g transform="translate(24.42 244.5 ) " clip-path="url(#cQokTEu)" clip-bounds-jfx="[rect (0.0, 0.0), (316.7179545454545, 234.5)]">
        <defs>
          <clipPath id="cQokTEu">
            <rect x="0.0" y="0.0" width="316.7179545454545" height="234.5">
            </rect>
          </clipPath>
        </defs>
        <g>
          <path d="M14.396270661157025 144.29163297902954 L14.396270661157025 144.29163297902954 L15.55259762189253 144.61104757281387 L16.708924582628033 144.08077193146192 L17.865251543363538 144.16851206754075 L19.02157850409904 144.0755908756516 L20.177905464834545 144.21815197494033 L21.33423242557005 143.48480547904856 L22.490559386305556 142.43593669770578 L23.646886347041058 142.29458296106316 L24.80321330777656 142.08382335876388 L25.959540268512065 142.17440104502057 L27.11586722924757 141.8740177081967 L28.272194189983075 141.91273358839365 L29.42852115071858 141.23928954404397 L30.58484811145408 141.37979771534117 L31.741175072189584 141.35583629242373 L32.89750203292509 141.664083288237 L34.053828993660595 142.28263101506738 L35.2101559543961 142.31053432797694 L36.3664829151316 141.96878752432286 L37.522809875867104 142.02953666650876 L38.67913683660261 142.55146124207246 L39.835463797338114 142.22019637432237 L40.99179075807362 142.16311615811816 L42.148117718809125 142.85404944082222 L43.30444467954462 142.99288359983942 L44.46077164028013 143.1270770427848 L45.617098601015634 143.24549786033955 L46.77342556175114 143.86669870126653 L47.92975252248664 143.82529567974387 L49.08607948322214 143.78972513192667 L50.24240644395765 143.80368847986523 L51.398733404693154 143.53702916556784 L52.55506036542866 143.7175949430118 L53.71138732616416 144.1008712397491 L54.86771428689966 144.88435253603566 L56.02404124763517 144.4291411758584 L57.18036820837067 144.40325411662837 L58.33669516910618 144.28045467895984 L59.49302212984168 144.76675397753812 L60.64934909057718 144.91803868423057 L61.80567605131269 145.32738250378267 L62.96200301204819 144.7551851263899 L64.1183299727837 145.0473535199118 L65.27465693351921 144.1880858125475 L66.43098389425471 144.52849124362743 L67.5873108549902 144.48239430632646 L68.74363781572572 144.74430522962294 L69.89996477646122 144.4584045916671 L71.05629173719673 145.22073814398536 L72.21261869793223 145.20105328686464 L73.36894565866773 145.13727086785357 L74.52527261940324 144.90221706855678 L75.68159958013874 144.61037379233497 L76.83792654087425 144.19461590232913 L77.99425350160975 144.19853663903334 L79.15058046234525 144.23845209089737 L80.30690742308076 143.9216685105677 L81.46323438381626 143.9287144228576 L82.61956134455176 143.95822224836027 L83.77588830528727 143.5096490229284 L84.93221526602277 143.07456783132977 L86.08854222675828 143.27052642247986 L87.24486918749378 143.29376324270228 L88.40119614822927 144.01613654450944 L89.55752310896479 144.07170483571457 L90.71385006970029 144.31665212266614 L91.8701770304358 144.73547257971734 L93.0265039911713 144.18547388251804 L94.1828309519068 144.6609530402 L95.3391579126423 145.41985861239294 L96.4954848733778 145.1842034663791 L97.65181183411332 145.03138335229062 L98.80813879484882 144.83568833169903 L99.96446575558431 145.11840235740945 L101.12079271631983 145.0223643834468 L102.27711967705532 145.33163689599056 L103.43344663779084 145.46418095413742 L104.58977359852634 145.74921336508356 L105.74610055926183 146.0611616247907 L106.90242751999735 145.48496086590464 L108.05875448073284 145.45630681780804 L109.21508144146836 144.90221706855675 L110.37140840220385 144.37278227529845 L111.52773536293937 144.62990971145317 L112.68406232367487 144.19396308770598 L113.84038928441036 144.30874657080503 L114.99671624514588 144.1242481741914 L116.15304320588137 144.303478361314 L117.30937016661689 144.20899438831233 L118.46569712735239 144.38933447676038 L119.62202408808788 143.97557152276426 L120.7783510488234 143.86542261083218 L121.9346780095589 144.054235650575 L123.0910049702944 144.03743297286331 L124.2473319310299 143.92679227381353 L125.4036588917654 143.77007362034007 L126.55998585250092 144.5767567731657 L127.71631281323641 144.87199931116567 L128.87263977397194 144.9442192683432 L130.02896673470744 144.87886053885111 L131.18529369544294 145.10095469702404 L132.34162065617843 144.45441055943476 L133.49794761691393 144.75790691479125 L134.65427457764946 144.40391688620284 L135.81060153838496 144.2292809909541 L136.96692849912046 144.31467529451191 L138.12325545985595 144.44576101089484 L139.27958242059145 143.89223849426887 L140.43590938132698 143.9095050720375 L141.59223634206248 144.37807695701352 L142.74856330279798 144.48773112876344 L143.90489026353347 143.2625854037069 L145.06121722426897 143.293151596438 L146.21754418500447 143.5202220881542 L147.37387114574 143.52831147993086 L148.5301981064755 143.43648795968852 L149.686525067211 143.65902871289526 L150.8428520279465 143.23208662059426 L151.999178988682 143.27663721757568 L153.15550594941752 143.65965770019184 L154.31183291015302 143.88329406642856 L155.4681598708885 143.77387485778982 L156.624486831624 143.9428188862062 L157.7808137923595 143.2430589234817 L158.93714075309504 143.63830761614423 L160.09346771383053 143.7998791034045 L161.24979467456603 143.81067547614933 L162.40612163530153 144.34105774012897 L163.56244859603703 144.65622494837967 L164.71877555677256 144.167860483957 L165.87510251750805 144.1933102385814 L167.03142947824355 144.4557421081853 L168.18775643897905 144.03807947336702 L169.34408339971455 144.12554733356995 L170.50041036045008 144.13269882687814 L171.65673732118557 143.41733169840955 L172.81306428192107 143.98393178350784 L173.96939124265657 143.47612070354143 L175.12571820339207 143.4284510971574 L176.2820451641276 143.24366835820175 L177.4383721248631 143.03847135176062 L178.5946990855986 143.0156582412296 L179.7510260463341 141.99662105434825 L180.9073530070696 141.77769914970185 L182.06367996780511 141.53737161738826 L183.2200069285406 141.58975676098416 L184.3763338892761 142.4526276511162 L185.5326608500116 142.56887363514872 L186.6889878107471 141.49162944598783 L187.84531477148263 141.66843601733254 L189.00164173221813 141.6858597749228 L190.15796869295363 141.09288421236573 L191.31429565368913 141.7541341799116 L192.47062261442463 141.51690340281544 L193.62694957516015 140.97800531276812 L194.78327653589565 140.6415094906372 L195.93960349663115 140.60215849137182 L197.09593045736665 140.85945153896952 L198.25225741810215 141.8955746486431 L199.40858437883767 141.55840898569278 L200.56491133957317 141.6913096675 L201.72123830030867 142.83331407183667 L202.87756526104417 142.10627146911006 L204.0338922217797 141.99662105434825 L205.1902191825152 141.871256253721 L206.3465461432507 142.0496594243612 L207.5028731039862 144.22731562959663 L208.6592000647217 144.29887096542382 L209.81552702545721 144.3120403364414 L210.9718539861927 144.17960027852502 L212.1281809469282 144.37145868997519 L213.2845079076637 144.113853315823 L214.4408348683992 144.0142022714685 L215.59716182913473 142.7689380077855 L216.75348878987023 142.2434349466815 L217.90981575060573 142.12088218711634 L219.06614271134123 142.1265062741392 L220.22246967207673 142.1186337210027 L221.37879663281225 141.84973710241843 L222.53512359354775 141.63202511423023 L223.69145055428325 141.234542743483 L224.84777751501875 141.29691065996812 L226.00410447575425 141.44496773945494 L227.16043143648977 142.13269509757814 L228.31675839722527 142.4930010214461 L229.47308535796077 142.03177069205145 L230.62941231869627 141.9193812444273 L231.78573927943177 142.6662042869841 L232.9420662401673 142.4313356135871 L234.0983932009028 142.33049993026836 L235.2547201616383 142.18117576743953 L236.4110471223738 142.85345604665127 L237.56737408310929 143.04147602114233 L238.7237010438448 143.48294410732888 L239.8800280045803 143.53765262835776 L241.0363549653158 143.9171855979817 L242.1926819260513 143.55323430855827 L243.3490088867868 143.8074989694485 L244.50533584752233 143.71380914151405 L245.66166280825783 143.82275226240392 L246.81798976899333 143.73654033314588 L247.97431672972883 144.1756858844922 L249.13064369046432 144.9483573178225 L250.28697065119985 144.45640746464755 L251.44329761193535 144.36087740815734 L252.59962457267085 144.59691737870497 L253.75595153340635 144.68665091132183 L254.91227849414184 145.0112724010267 L256.0686054548774 144.85074933858198 L257.2249324156129 144.75858696931203 L258.3812593763484 144.25812416433862 L259.5375863370839 144.09373611723268 L260.6939132978194 144.3926474945105 L261.8502402585549 144.41386781802981 L263.0065672192904 144.87131262786662 L264.1628941800259 144.9249227974089 L265.3192211407614 145.11072267474532 L266.4755481014969 145.0730845636318 L267.63187506223244 144.9649221160117 L268.78820202296794 144.84869467664566 L269.94452898370344 144.5338458882413 L271.10085594443893 143.99744910053678 L272.25718290517443 144.0032458324691 L273.41350986590993 143.50840645031752 L274.5698368266454 143.99873736808655 L275.7261637873809 144.29294795918676 L276.8824907481164 143.68418844817234 L278.0388177088519 143.6810408588955 L279.1951446695874 143.0703521359099 L280.3514716303229 143.11317630011462 L281.5077985910585 143.75614415465472 L282.664125551794 143.92230866100326 L283.82045251252947 144.0426007838987 L284.97677947326497 144.49640797700525 L286.13310643400047 144.59960718366702 L287.28943339473597 144.30479545600906 L288.44576035547146 144.85897097181274 L289.60208731620696 145.49213420227764 L290.75841427694246 145.23904276238179 L291.91474123767796 144.70493913316247 L293.0710681984135 145.21792471745653 L294.227395159149 145.11979940101762 L295.3837221198845 144.99465202477057 L296.54004908062 145.37140898275493 L297.6963760413555 145.96208457462112 L298.852703002091 145.89913407535533 L300.0090299628265 145.6197145379439 L301.165356923562 145.3373117867044 L302.3216838842975 145.42057201066243 " fill="none" stroke-width="1.0" stroke="rgb(102,194,165)" stroke-opacity="1.0">
          </path>
        </g>
        <g>
          <path d="M14.396270661157025 223.8409090909091 L14.396270661157025 223.8409090909091 L15.55259762189253 204.44894503485807 L16.708924582628033 208.0641391755081 L17.865251543363538 200.84384443619484 L19.02157850409904 196.68873755820746 L20.177905464834545 191.68122698699602 L21.33423242557005 178.53705181849438 L22.490559386305556 167.20813651538796 L23.646886347041058 169.11944943268358 L24.80321330777656 152.99298727683313 L25.959540268512065 145.37099151002135 L27.11586722924757 147.8804054570597 L28.272194189983075 139.548744962444 L29.42852115071858 147.80746917267354 L30.58484811145408 149.66547579895914 L31.741175072189584 139.03002053310215 L32.89750203292509 139.3595709304817 L34.053828993660595 142.06293648858428 L35.2101559543961 142.62028203453534 L36.3664829151316 146.06159252255756 L37.522809875867104 140.6167956534632 L38.67913683660261 139.2060002322184 L39.835463797338114 139.2437394632245 L40.99179075807362 146.36348621464302 L42.148117718809125 146.83002738451538 L43.30444467954462 134.42407618132785 L44.46077164028013 132.30705598608841 L45.617098601015634 127.34195637340409 L46.77342556175114 131.5964631411457 L47.92975252248664 122.42915645944254 L49.08607948322214 136.17707037067578 L50.24240644395765 135.32530395923104 L51.398733404693154 124.57943136771675 L52.55506036542866 126.56528586589808 L53.71138732616416 122.17357939843839 L54.86771428689966 127.4735706424844 L56.02404124763517 140.36114389691915 L57.18036820837067 136.83080971678746 L58.33669516910618 130.7158786621338 L59.49302212984168 123.82840951647658 L60.64934909057718 128.18407699934698 L61.80567605131269 125.31122855063282 L62.96200301204819 125.1921731738048 L64.1183299727837 129.60227249644169 L65.27465693351921 125.85585699802644 L66.43098389425471 127.08171097999524 L67.5873108549902 126.1230866792475 L68.74363781572572 127.09415452695346 L69.89996477646122 130.59165504463454 L71.05629173719673 129.49073838980476 L72.21261869793223 123.07120092564584 L73.36894565866773 121.32482500800263 L74.52527261940324 119.45790767125682 L75.68159958013874 125.2255068802844 L76.83792654087425 126.53308216253183 L77.99425350160975 118.89617850021047 L79.15058046234525 122.54461271827131 L80.30690742308076 123.82767482197681 L81.46323438381626 123.06510871585634 L82.61956134455176 124.56743284374093 L83.77588830528727 126.33044291033845 L84.93221526602277 118.29865686184442 L86.08854222675828 123.21095117387674 L87.24486918749378 120.63766156763094 L88.40119614822927 124.98175116136791 L89.55752310896479 122.5002929430822 L90.71385006970029 124.83428905212293 L91.8701770304358 121.96792029953967 L93.0265039911713 123.45239414552519 L94.1828309519068 126.40932482259213 L95.3391579126423 122.06263641586794 L96.4954848733778 127.37474259329029 L97.65181183411332 124.84876920736622 L98.80813879484882 123.65680992211475 L99.96446575558431 129.78962339347223 L101.12079271631983 127.79196644802326 L102.27711967705532 130.13167618166506 L103.43344663779084 128.5854546242401 L104.58977359852634 127.28855699463976 L105.74610055926183 127.140249889589 L106.90242751999735 124.28865229363532 L108.05875448073284 127.62786724676432 L109.21508144146836 124.7018027339676 L110.37140840220385 126.29696324821626 L111.52773536293937 127.22119945089204 L112.68406232367487 127.29513178268071 L113.84038928441036 124.57138790942322 L114.99671624514588 123.02915023465728 L116.15304320588137 122.33374939375352 L117.30937016661689 123.21922061821506 L118.46569712735239 132.05905768908886 L119.62202408808788 129.27030245298826 L120.7783510488234 126.91165667823729 L121.9346780095589 126.72287325618066 L123.0910049702944 128.3914561341953 L124.2473319310299 124.99500919728067 L125.4036588917654 128.44709564254242 L126.55998585250092 125.92155071485007 L127.71631281323641 126.42599492781027 L128.87263977397194 126.99083469065003 L130.02896673470744 128.33951604381977 L131.18529369544294 124.50243320484735 L132.34162065617843 129.09881175958998 L133.49794761691393 130.13711687596665 L134.65427457764946 124.8306939229797 L135.81060153838496 127.13348941610758 L136.96692849912046 128.04315290364283 L138.12325545985595 127.53532695691788 L139.27958242059145 125.66654419798343 L140.43590938132698 128.54527819831375 L141.59223634206248 128.83133772141403 L142.74856330279798 128.0985923951208 L143.90489026353347 127.75563440948802 L145.06121722426897 127.21843799005254 L146.21754418500447 129.37030847138305 L147.37387114574 129.99818505107856 L148.5301981064755 131.832832279326 L149.686525067211 126.5182256304356 L150.8428520279465 124.92444115821657 L151.999178988682 126.53122422131881 L153.15550594941752 124.66022143845024 L154.31183291015302 126.85709888586292 L155.4681598708885 124.58812933744538 L156.624486831624 127.65744272001072 L157.7808137923595 126.82032155333462 L158.93714075309504 130.3314525038254 L160.09346771383053 126.87086146214398 L161.24979467456603 128.54638044644338 L162.40612163530153 127.32353202890675 L163.56244859603703 129.8395994874152 L164.71877555677256 128.19637355792338 L165.87510251750805 129.96786838552018 L167.03142947824355 137.7285971666219 L168.18775643897905 134.18280611613005 L169.34408339971455 135.51945075353598 L170.50041036045008 132.76063205242204 L171.65673732118557 130.837420212638 L172.81306428192107 133.47326766927847 L173.96939124265657 132.88950947672626 L175.12571820339207 132.92472199680722 L176.2820451641276 133.52754251528228 L177.4383721248631 132.39612319321824 L178.5946990855986 133.18898381922514 L179.7510260463341 133.8200310176109 L180.9073530070696 133.2568174297009 L182.06367996780511 132.8950180159143 L183.2200069285406 133.96109674616682 L184.3763338892761 133.00344019547856 L185.5326608500116 133.9098005244914 L186.6889878107471 134.95502981689395 L187.84531477148263 134.60217109496162 L189.00164173221813 137.1287552279101 L190.15796869295363 137.37477826022774 L191.31429565368913 137.84236915082144 L192.47062261442463 137.27858341170372 L193.62694957516015 138.05119213912474 L194.78327653589565 138.04004672385767 L195.93960349663115 137.20300862345348 L197.09593045736665 138.54177370870485 L198.25225741810215 138.7099815479497 L199.40858437883767 138.27243012774463 L200.56491133957317 138.6607490109831 L201.72123830030867 140.0323690013158 L202.87756526104417 141.0392377733677 L204.0338922217797 141.2243035232399 L205.1902191825152 142.3252783691224 L206.3465461432507 141.97019162653362 L207.5028731039862 102.99129922179372 L208.6592000647217 108.24541212337951 L209.81552702545721 103.34329171825624 L210.9718539861927 103.97356675580406 L212.1281809469282 102.25622236561682 L213.2845079076637 103.84393878719953 L214.4408348683992 104.4339812950312 L215.59716182913473 105.70664564099962 L216.75348878987023 104.37124239279507 L217.90981575060573 113.89716029101653 L219.06614271134123 107.65284853613079 L220.22246967207673 103.81101159540026 L221.37879663281225 107.0009813534235 L222.53512359354775 106.70768346501782 L223.69145055428325 105.11076525870214 L224.84777751501875 107.06762046873908 L226.00410447575425 104.35126920936715 L227.16043143648977 110.05587356102198 L228.31675839722527 109.53091986202338 L229.47308535796077 110.00756271926062 L230.62941231869627 110.3405885885736 L231.78573927943177 109.33931264217264 L232.9420662401673 110.26674545742645 L234.0983932009028 109.5474429698304 L235.2547201616383 111.03883374936939 L236.4110471223738 109.01194229085363 L237.56737408310929 110.45668896420477 L238.7237010438448 108.55421187607952 L239.8800280045803 115.29949258269201 L241.0363549653158 109.88190281129974 L242.1926819260513 108.90257390268656 L243.3490088867868 106.1498844555948 L244.50533584752233 108.09966873592924 L245.66166280825783 110.90125341483196 L246.81798976899333 105.264414984777 L247.97431672972883 110.14395830201593 L249.13064369046432 111.29426815747277 L250.28697065119985 108.39571153817786 L251.44329761193535 112.77745872596067 L252.59962457267085 113.66260223387312 L253.75595153340635 110.75532669772151 L254.91227849414184 110.1270688335575 L256.0686054548774 111.01263165973202 L257.2249324156129 115.7902257146727 L258.3812593763484 113.67417941089819 L259.5375863370839 111.7874434469457 L260.6939132978194 114.09499046789134 L261.8502402585549 114.06012705882632 L263.0065672192904 117.93888201188884 L264.1628941800259 118.89531784808617 L265.3192211407614 117.65851815137802 L266.4755481014969 115.40696769407282 L267.63187506223244 109.84601487940863 L268.78820202296794 115.00815258738794 L269.94452898370344 117.31369942448427 L271.10085594443893 116.83313104562396 L272.25718290517443 119.02615186068907 L273.41350986590993 117.74509972019155 L274.5698368266454 120.9400853211028 L275.7261637873809 112.8791985387742 L276.8824907481164 116.71685209978872 L278.0388177088519 112.84978687626983 L279.1951446695874 116.24221650060035 L280.3514716303229 118.24353522158118 L281.5077985910585 117.14203981733351 L282.664125551794 118.325325033539 L283.82045251252947 117.30773735427276 L284.97677947326497 116.26365099090869 L286.13310643400047 117.70705638959406 L287.28943339473597 120.06360830356734 L288.44576035547146 120.53931550532316 L289.60208731620696 119.09165558457974 L290.75841427694246 119.67703642617953 L291.91474123767796 118.52345147061006 L293.0710681984135 116.67645740544336 L294.227395159149 116.89083693108859 L295.3837221198845 115.73341100200162 L296.54004908062 115.98250369199182 L297.6963760413555 116.64091877500212 L298.852703002091 119.88360635109062 L300.0090299628265 118.03824394210113 L301.165356923562 120.07602836316438 L302.3216838842975 121.78470859078352 " fill="none" stroke-width="1.0" stroke="rgb(252,141,98)" stroke-opacity="1.0">
          </path>
        </g>
        <g>
          <path d="M14.396270661157025 12.554475400668935 L14.396270661157025 12.554475400668935 L15.55259762189253 11.555407951922433 L16.708924582628033 13.24928605929557 L17.865251543363538 11.743372745715789 L19.02157850409904 12.448725639606607 L20.177905464834545 11.91767471546487 L21.33423242557005 10.659090909090907 L22.490559386305556 17.39426378167245 L23.646886347041058 20.86335797583409 L24.80321330777656 13.094088168471785 L25.959540268512065 13.842901111133443 L27.11586722924757 15.525051736973737 L28.272194189983075 13.1887628442216 L29.42852115071858 19.02521243309809 L30.58484811145408 12.94505067754261 L31.741175072189584 18.328875063929516 L32.89750203292509 20.259373167973322 L34.053828993660595 16.92680713805754 L35.2101559543961 20.644664649230663 L36.3664829151316 24.1644927664902 L37.522809875867104 19.086676324325623 L38.67913683660261 20.76040673223362 L39.835463797338114 19.140299644576174 L40.99179075807362 28.574483293134705 L42.148117718809125 23.207576764093943 L43.30444467954462 21.1701605991436 L44.46077164028013 27.029220498200473 L45.617098601015634 23.418426843504207 L46.77342556175114 25.179776075880113 L47.92975252248664 25.79968837270907 L49.08607948322214 26.57079480243398 L50.24240644395765 29.36108404723099 L51.398733404693154 24.63553405039221 L52.55506036542866 27.372330654602322 L53.71138732616416 27.16884037892183 L54.86771428689966 32.33252624269019 L56.02404124763517 32.44229645821564 L57.18036820837067 33.935352356100026 L58.33669516910618 34.89827492930327 L59.49302212984168 34.914870629388446 L60.64934909057718 35.86588772928141 L61.80567605131269 33.368407255131174 L62.96200301204819 37.66485671711074 L64.1183299727837 40.580120205325514 L65.27465693351921 41.32105532151877 L66.43098389425471 41.74748063395991 L67.5873108549902 45.106675436466574 L68.74363781572572 42.62815844441566 L69.89996477646122 40.39876224330166 L71.05629173719673 46.933734696004336 L72.21261869793223 46.914740791823945 L73.36894565866773 48.827724417854554 L74.52527261940324 50.22639775660164 L75.68159958013874 47.52722847880045 L76.83792654087425 44.45527199600258 L77.99425350160975 49.96609575255103 L79.15058046234525 45.8564747831885 L80.30690742308076 52.587282134663226 L81.46323438381626 56.07930733733984 L82.61956134455176 52.366869566604734 L83.77588830528727 55.05357973975775 L84.93221526602277 56.70426305802107 L86.08854222675828 56.975044097460525 L87.24486918749378 57.20385755414247 L88.40119614822927 60.13486266377751 L89.55752310896479 58.80661505322682 L90.71385006970029 59.68206254056376 L91.8701770304358 60.474190538916574 L93.0265039911713 59.23795703248291 L94.1828309519068 60.13545453133467 L95.3391579126423 61.5720921552155 L96.4954848733778 60.44860889287892 L97.65181183411332 64.56895620364426 L98.80813879484882 62.687604192680865 L99.96446575558431 64.14741664888503 L101.12079271631983 65.05213823983668 L102.27711967705532 63.59435705389889 L103.43344663779084 66.704443817742 L104.58977359852634 69.66511711530005 L105.74610055926183 68.42058568535484 L106.90242751999735 67.34993065171106 L108.05875448073284 74.11685684613754 L109.21508144146836 74.93125103682625 L110.37140840220385 75.85930438730777 L111.52773536293937 70.09211719107363 L112.68406232367487 73.52831133189444 L113.84038928441036 75.54659074182791 L114.99671624514588 74.70236638109539 L116.15304320588137 74.72978497301757 L117.30937016661689 77.82997366617664 L118.46569712735239 80.01979384974456 L119.62202408808788 79.44694779259885 L120.7783510488234 75.98134639153263 L121.9346780095589 81.12294455303532 L123.0910049702944 80.02732363949002 L124.2473319310299 82.15066038617567 L125.4036588917654 85.79186993111301 L126.55998585250092 83.4026917365064 L127.71631281323641 87.73093905123895 L128.87263977397194 84.55497130739676 L130.02896673470744 86.28541133311053 L131.18529369544294 86.17007693369763 L132.34162065617843 88.87848051406536 L133.49794761691393 90.36325910346034 L134.65427457764946 88.31080513902958 L135.81060153838496 92.74842856540573 L136.96692849912046 90.06411686263911 L138.12325545985595 91.01947932724613 L139.27958242059145 93.8885084462973 L140.43590938132698 94.3823688484973 L141.59223634206248 91.86792827222715 L142.74856330279798 95.40727590811193 L143.90489026353347 96.01299251667898 L145.06121722426897 97.39821588586283 L146.21754418500447 98.80496064225743 L147.37387114574 100.34026923016035 L148.5301981064755 100.14954898395695 L149.686525067211 99.53243963223493 L150.8428520279465 99.99978994195357 L151.999178988682 100.70962705944336 L153.15550594941752 101.5752280634513 L154.31183291015302 103.35084212603988 L155.4681598708885 103.65554131951842 L156.624486831624 103.64502107780774 L157.7808137923595 104.82093673138016 L158.93714075309504 106.38589427725447 L160.09346771383053 106.39494448473691 L161.24979467456603 107.73214473612725 L162.40612163530153 108.4932705810115 L163.56244859603703 108.69262524746756 L164.71877555677256 109.43388603272885 L165.87510251750805 109.7972505273389 L167.03142947824355 111.15838179458468 L168.18775643897905 113.88658800169364 L169.34408339971455 115.73252496551046 L170.50041036045008 114.58239106815464 L171.65673732118557 115.79634950647878 L172.81306428192107 115.03958684441861 L173.96939124265657 117.83442573655732 L175.12571820339207 118.33281390195833 L176.2820451641276 119.84151540289959 L177.4383721248631 119.36065405595588 L178.5946990855986 120.47924059123191 L179.7510260463341 122.19046459641531 L180.9073530070696 121.84308258684538 L182.06367996780511 123.76065025535885 L183.2200069285406 123.43956645522888 L184.3763338892761 124.83337232605938 L185.5326608500116 126.20827504106126 L186.6889878107471 127.63769959313925 L187.84531477148263 127.89645283026185 L189.00164173221813 127.59768789543259 L190.15796869295363 129.23283309805544 L191.31429565368913 129.43824535978823 L192.47062261442463 130.3363013321577 L193.62694957516015 132.81278560555066 L194.78327653589565 132.50288933483176 L195.93960349663115 133.31622303295515 L197.09593045736665 134.11406047042803 L198.25225741810215 135.37455499263726 L199.40858437883767 135.95731673203943 L200.56491133957317 136.68350606256521 L201.72123830030867 137.9645002063804 L202.87756526104417 139.32519518043725 L204.0338922217797 139.94142148026947 L205.1902191825152 141.45524378033835 L206.3465461432507 141.97019162653362 L207.5028731039862 12.88240756798507 L208.6592000647217 16.50567803279729 L209.81552702545721 12.939375972108735 L210.9718539861927 14.429844877634736 L212.1281809469282 14.83614784304558 L213.2845079076637 16.27107661487463 L214.4408348683992 17.940737717886307 L215.59716182913473 18.041792708165033 L216.75348878987023 17.99120411835159 L217.90981575060573 20.130725249300497 L219.06614271134123 18.39685341691522 L220.22246967207673 22.1106272991545 L221.37879663281225 22.470530268958015 L222.53512359354775 21.93988093354521 L223.69145055428325 19.453882181503943 L224.84777751501875 21.42764646502839 L226.00410447575425 26.291160017422072 L227.16043143648977 23.99770151755257 L228.31675839722527 22.44554236443247 L229.47308535796077 24.86231021584598 L230.62941231869627 25.186933334420445 L231.78573927943177 28.547074309217734 L232.9420662401673 25.97504314049965 L234.0983932009028 28.041691255102037 L235.2547201616383 28.46219020204819 L236.4110471223738 31.253116171402155 L237.56737408310929 31.30447672014718 L238.7237010438448 31.817891849323075 L239.8800280045803 31.52162568170975 L241.0363549653158 31.867282576473002 L242.1926819260513 32.96765840125984 L243.3490088867868 32.20626354654368 L244.50533584752233 35.23155795941396 L245.66166280825783 35.87160714821593 L246.81798976899333 37.86494799509546 L247.97431672972883 36.582393081236546 L249.13064369046432 37.33848328851417 L250.28697065119985 39.781071165856204 L251.44329761193535 39.026643044126374 L252.59962457267085 42.014728855179 L253.75595153340635 42.48952221753072 L254.91227849414184 42.57709962623102 L256.0686054548774 42.47700003150432 L257.2249324156129 39.42110328366155 L258.3812593763484 42.528125863301184 L259.5375863370839 44.4666430262661 L260.6939132978194 45.39884167306124 L261.8502402585549 45.21239607596753 L263.0065672192904 43.18933720873687 L264.1628941800259 44.94831012711762 L265.3192211407614 47.666805292257834 L266.4755481014969 48.67517222574499 L267.63187506223244 51.1188660634063 L268.78820202296794 51.81231448638785 L269.94452898370344 52.617841571291535 L271.10085594443893 53.46094942745192 L272.25718290517443 49.86997717557442 L273.41350986590993 55.33520378598382 L274.5698368266454 58.187634834434974 L275.7261637873809 56.47775939573029 L276.8824907481164 55.89184772716901 L278.0388177088519 56.87179169455554 L279.1951446695874 56.243186022639634 L280.3514716303229 57.274236068587555 L281.5077985910585 55.75446740435069 L282.664125551794 56.20904285733067 L283.82045251252947 60.67289419672318 L284.97677947326497 59.54747685131598 L286.13310643400047 63.46554191972507 L287.28943339473597 62.26193878790062 L288.44576035547146 59.29454481408938 L289.60208731620696 64.37066719137128 L290.75841427694246 62.588880194464195 L291.91474123767796 65.16151070196604 L293.0710681984135 65.6831692029942 L294.227395159149 66.40500153109636 L295.3837221198845 66.22958089441491 L296.54004908062 68.50927808983026 L297.6963760413555 68.43336830213732 L298.852703002091 70.97952153869204 L300.0090299628265 70.17810486688204 L301.165356923562 71.15535000228378 L302.3216838842975 70.58915217679335 " fill="none" stroke-width="1.0" stroke="rgb(141,160,203)" stroke-opacity="1.0">
          </path>
        </g>
      </g>
    </g>
    <g transform="translate(56.34852272727271 16.0 ) ">
      <text class="plot-title" x="0.0">
        <tspan x="0.0" y="0.0">
        Single- vs. Multi-Agent
        </tspan>
      </text>
    </g>
    <g transform="translate(56.34852272727271 39.0 ) ">
      <text class="plot-subtitle" x="0.0">
        <tspan x="0.0" y="0.0">
        Total Reward
        </tspan>
      </text>
    </g>
    <g transform="translate(25.928522727272707 296.5 ) rotate(-90.0 ) ">
      <text class="axis-title-y" text-anchor="middle">
      
      </text>
    </g>
    <g transform="translate(214.70749999999998 560.0 ) ">
      <text class="axis-title-x" text-anchor="middle" dy="0.7em">
      Episodes
      </text>
    </g>
    <g transform="translate(413.0664772727273 240.75 ) ">
      <rect x="5.0" y="5.0" height="101.5" width="168.005" stroke="rgb(71,71,71)" stroke-opacity="1.0" stroke-width="0.0" fill="rgb(255,255,255)" fill-opacity="1.0">
      </rect>
      <g transform="translate(10.0 10.0 ) ">
        <g transform="translate(0.0 12.0 ) ">
          <text class="legend-title" x="0.0">
            <tspan x="0.0" y="0.0">
            Agent
            </tspan>
          </text>
        </g>
        <g transform="translate(0.0 22.5 ) ">
          <g transform="">
            <g>
              <rect x="0.0" y="0.0" height="23.0" width="23.0" stroke-width="0.0" fill="rgb(255,255,255)" fill-opacity="1.0">
              </rect>
              <g transform="translate(1.0 1.0 ) ">
                <g>
                  <line x1="0.0" y1="10.5" x2="21.0" y2="10.5" stroke="rgb(102,194,165)" stroke-opacity="1.0" fill="rgb(17,142,216)" fill-opacity="1.0" stroke-width="1.0">
                  </line>
                </g>
              </g>
              <rect x="0.0" y="0.0" height="23.0" width="23.0" stroke="rgb(255,255,255)" stroke-opacity="1.0" stroke-width="1.0" fill-opacity="0.0">
              </rect>
            </g>
            <g transform="translate(27.355 11.5 ) ">
              <text class="legend-item" dy="0.35em">
              True Reward
              </text>
            </g>
          </g>
          <g transform="translate(0.0 23.0 ) ">
            <g>
              <rect x="0.0" y="0.0" height="23.0" width="23.0" stroke-width="0.0" fill="rgb(255,255,255)" fill-opacity="1.0">
              </rect>
              <g transform="translate(1.0 1.0 ) ">
                <g>
                  <line x1="0.0" y1="10.5" x2="21.0" y2="10.5" stroke="rgb(252,141,98)" stroke-opacity="1.0" fill="rgb(17,142,216)" fill-opacity="1.0" stroke-width="1.0">
                  </line>
                </g>
              </g>
              <rect x="0.0" y="0.0" height="23.0" width="23.0" stroke="rgb(255,255,255)" stroke-opacity="1.0" stroke-width="1.0" fill-opacity="0.0">
              </rect>
            </g>
            <g transform="translate(27.355 11.5 ) ">
              <text class="legend-item" dy="0.35em">
              Realized Reward
              </text>
            </g>
          </g>
          <g transform="translate(0.0 46.0 ) ">
            <g>
              <rect x="0.0" y="0.0" height="23.0" width="23.0" stroke-width="0.0" fill="rgb(255,255,255)" fill-opacity="1.0">
              </rect>
              <g transform="translate(1.0 1.0 ) ">
                <g>
                  <line x1="0.0" y1="10.5" x2="21.0" y2="10.5" stroke="rgb(141,160,203)" stroke-opacity="1.0" fill="rgb(17,142,216)" fill-opacity="1.0" stroke-width="1.0">
                  </line>
                </g>
              </g>
              <rect x="0.0" y="0.0" height="23.0" width="23.0" stroke="rgb(255,255,255)" stroke-opacity="1.0" stroke-width="1.0" fill-opacity="0.0">
              </rect>
            </g>
            <g transform="translate(27.355 11.5 ) ">
              <text class="legend-item" dy="0.35em">
              Optimal Reward
              </text>
            </g>
          </g>
        </g>
      </g>
    </g>
    <g transform="translate(373.06647727272724 592.0 ) ">
      <text class="plot-caption" text-anchor="end" x="0.0">
        <tspan x="0.0" y="0.0">
        Training
        </tspan>
      </text>
    </g>
  </g>
</svg>