<svg xmlns="http://www.w3.org/2000/svg" class="plt-container" width="600.0" height="400.0">
  <style type="text/css">
  .plt-container {
   font-family: "Lucida Grande", sans-serif;
   user-select: none;
   -webkit-user-select: none;
   -moz-user-select: none;
   -ms-user-select: none;
}
text {
   fill: #9600ff;
   font-weight: bold;
   font-style: italic;   

   text-rendering: optimizeLegibility;
}
#pV1rHet .plot-title {
   fill: #171717;
   font-family: "Lucida Grande", sans-serif;
   font-size: 16.0px;
   font-weight: bold;
   font-style: normal;   
}
#pV1rHet .plot-subtitle {
   fill: #171717;
   font-family: "Lucida Grande", sans-serif;
   font-size: 15.0px;
   font-weight: normal;
   font-style: normal;   
}
#pV1rHet .plot-caption {
   fill: #171717;
   font-family: "Lucida Grande", sans-serif;
   font-size: 13.0px;
   font-weight: normal;
   font-style: normal;   
}
#pV1rHet .legend-title {
   fill: #171717;
   font-family: "Lucida Grande", sans-serif;
   font-size: 15.0px;
   font-weight: normal;
   font-style: normal;   
}
#pV1rHet .legend-item {
   fill: #474747;
   font-family: "Lucida Grande", sans-serif;
   font-size: 13.0px;
   font-weight: normal;
   font-style: normal;   
}
#pV1rHet .axis-title-x {
   fill: #474747;
   font-family: "Lucida Grande", sans-serif;
   font-size: 15.0px;
   font-weight: normal;
   font-style: normal;   
}
#pV1rHet .axis-text-x {
   fill: #474747;
   font-family: "Lucida Grande", sans-serif;
   font-size: 13.0px;
   font-weight: normal;
   font-style: normal;   
}
#dcRYbhg .axis-tooltip-text-x {
   fill: #ffffff;
   font-family: "Lucida Grande", sans-serif;
   font-size: 13.0px;
   font-weight: normal;
   font-style: normal;   
}
#pV1rHet .axis-title-y {
   fill: #474747;
   font-family: "Lucida Grande", sans-serif;
   font-size: 15.0px;
   font-weight: normal;
   font-style: normal;   
}
#pV1rHet .axis-text-y {
   fill: #474747;
   font-family: "Lucida Grande", sans-serif;
   font-size: 13.0px;
   font-weight: normal;
   font-style: normal;   
}
#dcRYbhg .axis-tooltip-text-y {
   fill: #ffffff;
   font-family: "Lucida Grande", sans-serif;
   font-size: 13.0px;
   font-weight: normal;
   font-style: normal;   
}
#pV1rHet .facet-strip-text-x {
   fill: #474747;
   font-family: "Lucida Grande", sans-serif;
   font-size: 15.0px;
   font-weight: normal;
   font-style: normal;   
}
#pV1rHet .facet-strip-text-y {
   fill: #474747;
   font-family: "Lucida Grande", sans-serif;
   font-size: 15.0px;
   font-weight: normal;
   font-style: normal;   
}
#dcRYbhg .tooltip-text {
   fill: #474747;
   font-family: "Lucida Grande", sans-serif;
   font-size: 13.0px;
   font-weight: normal;
   font-style: normal;   
}
#dcRYbhg .tooltip-title {
   fill: #474747;
   font-family: "Lucida Grande", sans-serif;
   font-size: 13.0px;
   font-weight: bold;
   font-style: normal;   
}
#dcRYbhg .tooltip-label {
   fill: #474747;
   font-family: "Lucida Grande", sans-serif;
   font-size: 13.0px;
   font-weight: bold;
   font-style: normal;   
}

  </style>
  <g id="pV1rHet">
    <rect x="0.0" y="0.0" height="400.0" width="600.0" stroke="rgb(71,71,71)" stroke-opacity="1.0" stroke-width="0.0" fill="rgb(255,255,255)" fill-opacity="1.0">
    </rect>
    <g transform="translate(29.46511363636364 57.0 ) ">
      <rect x="24.42" y="0.0" height="279.0" width="430.03477272727264" stroke="rgb(71,71,71)" stroke-opacity="1.0" stroke-width="0.0" fill="rgb(235,235,235)" fill-opacity="1.0">
      </rect>
      <g transform="translate(24.42 279.0 ) ">
        <line x1="57.22806668824055" y1="-0.0" x2="57.22806668824055" y2="-279.0" stroke="rgb(255,255,255)" stroke-opacity="1.0" stroke-width="0.5">
        </line>
        <line x1="135.73021578047727" y1="-0.0" x2="135.73021578047727" y2="-279.0" stroke="rgb(255,255,255)" stroke-opacity="1.0" stroke-width="0.5">
        </line>
        <line x1="214.23236487271396" y1="-0.0" x2="214.23236487271396" y2="-279.0" stroke="rgb(255,255,255)" stroke-opacity="1.0" stroke-width="0.5">
        </line>
        <line x1="292.7345139649507" y1="-0.0" x2="292.7345139649507" y2="-279.0" stroke="rgb(255,255,255)" stroke-opacity="1.0" stroke-width="0.5">
        </line>
        <line x1="371.23666305718734" y1="-0.0" x2="371.23666305718734" y2="-279.0" stroke="rgb(255,255,255)" stroke-opacity="1.0" stroke-width="0.5">
        </line>
        <line x1="17.976992142122207" y1="-0.0" x2="17.976992142122207" y2="-279.0" stroke="rgb(255,255,255)" stroke-opacity="1.0" stroke-width="1.4">
        </line>
        <line x1="96.4791412343589" y1="-0.0" x2="96.4791412343589" y2="-279.0" stroke="rgb(255,255,255)" stroke-opacity="1.0" stroke-width="1.4">
        </line>
        <line x1="174.98129032659563" y1="-0.0" x2="174.98129032659563" y2="-279.0" stroke="rgb(255,255,255)" stroke-opacity="1.0" stroke-width="1.4">
        </line>
        <line x1="253.48343941883232" y1="-0.0" x2="253.48343941883232" y2="-279.0" stroke="rgb(255,255,255)" stroke-opacity="1.0" stroke-width="1.4">
        </line>
        <line x1="331.985588511069" y1="-0.0" x2="331.985588511069" y2="-279.0" stroke="rgb(255,255,255)" stroke-opacity="1.0" stroke-width="1.4">
        </line>
        <line x1="410.48773760330573" y1="-0.0" x2="410.48773760330573" y2="-279.0" stroke="rgb(255,255,255)" stroke-opacity="1.0" stroke-width="1.4">
        </line>
        <g transform="translate(17.976992142122207 0.0 ) ">
          <line stroke-width="1.4" stroke="rgb(71,71,71)" stroke-opacity="1.0" x2="0.0" y2="4.0">
          </line>
          <g transform="translate(0.0 7.0 ) ">
            <text class="axis-text-x" text-anchor="middle" dy="0.7em">
            0
            </text>
          </g>
        </g>
        <g transform="translate(96.4791412343589 0.0 ) ">
          <line stroke-width="1.4" stroke="rgb(71,71,71)" stroke-opacity="1.0" x2="0.0" y2="4.0">
          </line>
          <g transform="translate(0.0 7.0 ) ">
            <text class="axis-text-x" text-anchor="middle" dy="0.7em">
            50
            </text>
          </g>
        </g>
        <g transform="translate(174.98129032659563 0.0 ) ">
          <line stroke-width="1.4" stroke="rgb(71,71,71)" stroke-opacity="1.0" x2="0.0" y2="4.0">
          </line>
          <g transform="translate(0.0 7.0 ) ">
            <text class="axis-text-x" text-anchor="middle" dy="0.7em">
            100
            </text>
          </g>
        </g>
        <g transform="translate(253.48343941883232 0.0 ) ">
          <line stroke-width="1.4" stroke="rgb(71,71,71)" stroke-opacity="1.0" x2="0.0" y2="4.0">
          </line>
          <g transform="translate(0.0 7.0 ) ">
            <text class="axis-text-x" text-anchor="middle" dy="0.7em">
            150
            </text>
          </g>
        </g>
        <g transform="translate(331.985588511069 0.0 ) ">
          <line stroke-width="1.4" stroke="rgb(71,71,71)" stroke-opacity="1.0" x2="0.0" y2="4.0">
          </line>
          <g transform="translate(0.0 7.0 ) ">
            <text class="axis-text-x" text-anchor="middle" dy="0.7em">
            200
            </text>
          </g>
        </g>
        <g transform="translate(410.48773760330573 0.0 ) ">
          <line stroke-width="1.4" stroke="rgb(71,71,71)" stroke-opacity="1.0" x2="0.0" y2="4.0">
          </line>
          <g transform="translate(0.0 7.0 ) ">
            <text class="axis-text-x" text-anchor="middle" dy="0.7em">
            250
            </text>
          </g>
        </g>
      </g>
      <g transform="translate(24.42 0.0 ) ">
        <line x1="0.0" y1="244.70819291767344" x2="430.03477272727264" y2="244.70819291767344" stroke="rgb(255,255,255)" stroke-opacity="1.0" stroke-width="0.5">
        </line>
        <line x1="0.0" y1="196.82870112710987" x2="430.03477272727264" y2="196.82870112710987" stroke="rgb(255,255,255)" stroke-opacity="1.0" stroke-width="0.5">
        </line>
        <line x1="0.0" y1="148.94920933654635" x2="430.03477272727264" y2="148.94920933654635" stroke="rgb(255,255,255)" stroke-opacity="1.0" stroke-width="0.5">
        </line>
        <line x1="0.0" y1="101.06971754598283" x2="430.03477272727264" y2="101.06971754598283" stroke="rgb(255,255,255)" stroke-opacity="1.0" stroke-width="0.5">
        </line>
        <line x1="0.0" y1="53.190225755419284" x2="430.03477272727264" y2="53.190225755419284" stroke="rgb(255,255,255)" stroke-opacity="1.0" stroke-width="0.5">
        </line>
        <line x1="0.0" y1="268.6479388129552" x2="430.03477272727264" y2="268.6479388129552" stroke="rgb(255,255,255)" stroke-opacity="1.0" stroke-width="1.4">
        </line>
        <line x1="0.0" y1="220.76844702239165" x2="430.03477272727264" y2="220.76844702239165" stroke="rgb(255,255,255)" stroke-opacity="1.0" stroke-width="1.4">
        </line>
        <line x1="0.0" y1="172.8889552318281" x2="430.03477272727264" y2="172.8889552318281" stroke="rgb(255,255,255)" stroke-opacity="1.0" stroke-width="1.4">
        </line>
        <line x1="0.0" y1="125.00946344126459" x2="430.03477272727264" y2="125.00946344126459" stroke="rgb(255,255,255)" stroke-opacity="1.0" stroke-width="1.4">
        </line>
        <line x1="0.0" y1="77.12997165070105" x2="430.03477272727264" y2="77.12997165070105" stroke="rgb(255,255,255)" stroke-opacity="1.0" stroke-width="1.4">
        </line>
        <line x1="0.0" y1="29.250479860137517" x2="430.03477272727264" y2="29.250479860137517" stroke="rgb(255,255,255)" stroke-opacity="1.0" stroke-width="1.4">
        </line>
        <g transform="translate(0.0 268.6479388129552 ) ">
          <line stroke-width="1.4" stroke="rgb(71,71,71)" stroke-opacity="1.0" x2="-4.0" y2="0.0">
          </line>
          <g transform="translate(-7.0 0.0 ) ">
            <text class="axis-text-y" text-anchor="end" dy="0.35em">
            -6
            </text>
          </g>
        </g>
        <g transform="translate(0.0 220.76844702239165 ) ">
          <line stroke-width="1.4" stroke="rgb(71,71,71)" stroke-opacity="1.0" x2="-4.0" y2="0.0">
          </line>
          <g transform="translate(-7.0 0.0 ) ">
            <text class="axis-text-y" text-anchor="end" dy="0.35em">
            -4
            </text>
          </g>
        </g>
        <g transform="translate(0.0 172.8889552318281 ) ">
          <line stroke-width="1.4" stroke="rgb(71,71,71)" stroke-opacity="1.0" x2="-4.0" y2="0.0">
          </line>
          <g transform="translate(-7.0 0.0 ) ">
            <text class="axis-text-y" text-anchor="end" dy="0.35em">
            -2
            </text>
          </g>
        </g>
        <g transform="translate(0.0 125.00946344126459 ) ">
          <line stroke-width="1.4" stroke="rgb(71,71,71)" stroke-opacity="1.0" x2="-4.0" y2="0.0">
          </line>
          <g transform="translate(-7.0 0.0 ) ">
            <text class="axis-text-y" text-anchor="end" dy="0.35em">
            0
            </text>
          </g>
        </g>
        <g transform="translate(0.0 77.12997165070105 ) ">
          <line stroke-width="1.4" stroke="rgb(71,71,71)" stroke-opacity="1.0" x2="-4.0" y2="0.0">
          </line>
          <g transform="translate(-7.0 0.0 ) ">
            <text class="axis-text-y" text-anchor="end" dy="0.35em">
            2
            </text>
          </g>
        </g>
        <g transform="translate(0.0 29.250479860137517 ) ">
          <line stroke-width="1.4" stroke="rgb(71,71,71)" stroke-opacity="1.0" x2="-4.0" y2="0.0">
          </line>
          <g transform="translate(-7.0 0.0 ) ">
            <text class="axis-text-y" text-anchor="end" dy="0.35em">
            4
            </text>
          </g>
        </g>
      </g>
      <g transform="translate(24.42 0.0 ) " clip-path="url(#ci2JvWS)" clip-bounds-jfx="[rect (0.0, 0.0), (430.03477272727264, 279.0)]">
        <defs>
          <clipPath id="ci2JvWS">
            <rect x="0.0" y="0.0" width="430.03477272727264" height="279.0">
            </rect>
          </clipPath>
        </defs>
        <g>
          <path d="M19.54703512396694 196.76994729353987 L19.54703512396694 196.76994729353987 L21.117078105811675 187.87153046063634 L22.687121087656408 184.232143578469 L24.257164069501144 163.7955318796819 L25.827207051345876 171.09327477204553 L27.39725003319061 168.87696617126977 L28.967293015035345 132.85083130393215 L30.53733599688008 132.2039537056785 L32.10737897872481 120.43591792263945 L33.677421960569546 99.28463185004392 L35.24746494241428 89.68159672806436 L36.81750792425902 84.08165038450952 L38.387550906103755 91.98728594551989 L39.957593887948484 86.70375695937835 L41.52763686979322 104.14597266837993 L43.09767985163795 78.43932107735746 L44.667722833482685 80.20690481227781 L46.23776581532742 70.93572247779223 L47.80780879717216 76.7678325364441 L49.37785177901689 67.27632918010607 L50.94789476086162 65.5715361886916 L52.51793774270636 76.34242390234792 L54.087980724551095 61.376796794400484 L55.658023706395824 68.82859876402047 L57.22806668824056 58.25239024105662 L58.798109670085296 67.84187599860522 L60.368152651930025 66.46323987759529 L61.93819563377476 70.60878718787457 L63.5082386156195 68.22338725450811 L65.07828159746424 61.23685949670153 L66.64832457930896 62.796017269296186 L68.2183675611537 54.50211680934102 L69.78841054299843 64.0584933947986 L71.35845352484316 57.77221818152837 L72.9284965066879 64.56262186385679 L74.49853948853263 74.15810023692049 L76.06858247037738 79.37262229092461 L77.6386254522221 64.55343164555501 L79.20866843406684 66.15420852256383 L80.77871141591157 70.37617118563858 L82.3487543977563 69.34743656984261 L83.91879737960105 76.75861024113067 L85.48884036144577 73.26776129756283 L87.05888334329052 69.05796821331907 L88.62892632513524 73.47237162246734 L90.19896930697999 69.03882263827458 L91.76901228882471 78.9917895414869 L93.33905527066943 73.5863685030501 L94.90909825251418 62.52279017495517 L96.4791412343589 71.67985781175906 L98.04918421620366 73.0233699616743 L99.61922719804838 63.966485440928146 L101.18927017989313 58.55521752194525 L102.75931316173785 64.74541604799404 L104.32935614358257 63.116883629895874 L105.89939912542732 66.99717817500611 L107.46944210727204 67.47228906884195 L109.0394850891168 73.16314011749364 L110.60952807096152 66.1289708192916 L112.17957105280627 68.41866865544726 L113.74961403465099 71.64014317021531 L115.31965701649571 71.20770307680557 L116.88969999834046 66.59830849698176 L118.45974298018518 61.729491378620125 L120.02978596202993 62.321488978084915 L121.59982894387466 61.26542968941904 L123.1698719257194 61.78130364181039 L124.73991490756413 61.94291434465951 L126.30995788940885 63.305007980990645 L127.8800008712536 66.50720793854833 L129.45004385309832 63.37614492136462 L131.02008683494307 61.5798349394043 L132.5901298167878 62.42506657721605 L134.16017279863254 68.36741442941059 L135.73021578047727 58.13359591087038 L137.300258762322 67.51592578655382 L138.87030174416674 66.1778704327948 L140.44034472601146 65.53821717134781 L142.0103877078562 67.33730966568274 L143.58043068970093 65.93361891064131 L145.15047367154568 70.52884488524433 L146.7205166533904 63.03308614689699 L148.29055963523516 69.81504107450918 L149.86060261707988 68.23202302083027 L151.43064559892463 71.66260922409691 L153.00068858076935 72.94906814451633 L154.57073156261407 69.31051279221387 L156.14077454445882 72.76237572001847 L157.71081752630354 69.03806766170051 L159.2808605081483 71.9039203542669 L160.85090348999302 70.14630625207725 L162.42094647183777 74.31768262319596 L163.9909894536825 71.66035982101715 L165.5610324355272 73.59331779053184 L167.13107541737196 70.74925898675426 L168.70111839921668 72.18683167406674 L170.27116138106143 74.30859244535496 L171.84120436290615 75.75870894539423 L173.4112473447509 72.97583203793775 L174.98129032659563 71.19251895802444 L176.55133330844035 73.41611963887753 L178.1213762902851 73.77625649972546 L179.69141927212982 76.5756500116166 L181.26146225397457 75.79395928372946 L182.8315052358193 77.74908016617147 L184.40154821766404 77.93557566446435 L185.97159119950877 77.05468513553981 L187.5416341813535 79.1393335379986 L189.11167716319824 80.52957921612446 L190.68172014504296 78.74769149998812 L192.2517631268877 81.46481538629064 L193.82180610873243 78.98930936287293 L195.39184909057718 82.67397052450077 L196.9618920724219 82.19609738754309 L198.53193505426663 80.71949105688194 L200.10197803611138 81.00221022293019 L201.6720210179561 83.55766319415123 L203.24206399980085 84.71521685645168 L204.81210698164557 83.98484865672799 L206.38214996349032 83.76428345145207 L207.95219294533504 88.16941612900983 L209.52223592717976 85.22354870776803 L211.09227890902451 85.65799271789348 L212.66232189086924 94.11894636368861 L214.232364872714 89.99175289024012 L215.8024078545587 89.73930938129757 L217.37245083640346 89.36510385811164 L218.94249381824818 90.49718249793465 L220.5125368000929 90.10405333457507 L222.08257978193765 92.12661377868488 L223.65262276378238 93.93141552162533 L225.22266574562713 96.30669451538704 L226.79270872747185 94.71846625533752 L228.3627517093166 97.35702794529581 L229.93279469116132 100.3617607457534 L231.50283767300604 96.57941576354453 L233.0728806548508 98.60788029002246 L234.6429236366955 98.45010957719252 L236.21296661854026 99.5325534138626 L237.783009600385 99.69012030613989 L239.35305258222974 102.50097146231612 L240.92309556407446 102.13049930481338 L242.49313854591918 101.6196631126042 L244.06318152776393 102.3516102370327 L245.63322450960865 106.10279012263712 L247.2032674914534 104.35716329743275 L248.77331047329812 103.2647656807618 L250.34335345514287 105.14164770801898 L251.9133964369876 105.4211332011136 L253.48343941883232 107.24651484718477 L255.05348240067707 108.46189589336076 L256.6235253825218 109.02774412986946 L258.1935683643665 109.89928385550829 L259.76361134621123 111.16106512564996 L261.333654328056 112.55817877303082 L262.90369730990074 114.04355377743597 L264.47374029174546 114.16797511765958 L266.0437832735902 114.09192771076818 L267.6138262554349 115.73997277789364 L269.1838692372797 116.33210072041753 L270.7539122191244 117.0852342029665 L272.3239552009691 118.21386429703604 L273.89399818281385 119.92312942205517 L275.46404116465857 121.09445909425826 L277.0340841465033 122.04424547100665 L278.60412712834807 124.30973606803876 L280.1741701101928 124.19543304615573 L281.7442130920375 12.681818181818187 L283.31425607388223 19.78066145608716 L284.884299055727 16.162406252142702 L286.45434203757173 16.786745969853 L288.02438501941646 21.869759411974087 L289.5944280012612 16.935576740028424 L291.1644709831059 16.71193326141666 L292.7345139649507 18.702235442988695 L294.3045569467954 22.528110213020142 L295.8745999286401 20.559064538293967 L297.44464291048484 22.77529558002749 L299.01468589232957 17.636365414501043 L300.58472887417435 21.77168122434351 L302.15477185601907 31.009058171704993 L303.7248148378638 34.019799402272255 L305.2948578197085 28.497841906500938 L306.8649008015533 30.88758426217005 L308.434943783398 45.06587499862236 L310.00498676524273 33.53141729748931 L311.57502974708746 35.19528578816764 L313.1450727289322 28.28688434242548 L314.71511571077696 32.83794969957641 L316.2851586926217 34.9719404108897 L317.8552016744664 35.645631128301275 L319.4252446563111 30.827847342836478 L320.99528763815584 34.31824614543835 L322.5653306200006 34.92995021344883 L324.13537360184534 30.890657894007163 L325.70541658369007 37.46032601437571 L327.2754595655348 33.25477695199834 L328.84550254737957 35.902178404156814 L330.4155455292243 36.193069677684804 L331.985588511069 31.356977974381323 L333.55563149291373 37.424330208825324 L335.12567447475845 36.2701782881653 L336.69571745660323 42.001149449030606 L338.26576043844796 40.421880464838125 L339.8358034202927 38.03005102908506 L341.4058464021374 35.72413564763821 L342.9758893839821 33.82689776503619 L344.5459323658269 39.76433989823492 L346.1159753476716 39.08008915320302 L347.68601832951634 37.83534619469927 L349.25606131136107 42.022609901749334 L350.82610429320584 41.32529523293236 L352.39614727505057 45.69876021187736 L353.9661902568953 42.734914622989706 L355.53623323874 40.32323789957172 L357.10627622058473 46.47597575482854 L358.6763192024295 46.42923464798636 L360.24636218427423 41.04034612391371 L361.81640516611895 42.32991398054254 L363.3864481479637 42.84588740440236 L364.9564911298084 46.02100742117466 L366.5265341116532 51.91319127474226 L368.0965770934979 54.20170104105041 L369.6666200753426 50.37813785166209 L371.23666305718734 52.20148980809327 L372.8067060390321 46.364663018569814 L374.37674902087684 53.11972014897532 L375.94679200272157 49.351737803952105 L377.5168349845663 55.36511307078918 L379.086877966411 54.99606250604377 L380.6569209482558 55.806675979026195 L382.2269639301005 56.95525534314356 L383.79700691194523 54.59252717950555 L385.36704989378995 52.628105051866186 L386.9370928756347 55.02912990862933 L388.50713585747945 54.31323057335079 L390.0771788393242 58.726255080222685 L391.6472218211689 61.30763662571787 L393.2172648030136 61.4331026714288 L394.7873077848584 61.50931068774245 L396.3573507667031 58.49094534823878 L397.92739374854784 60.62263121833119 L399.49743673039256 60.608268308462 L401.0674797122373 59.07615830528273 L402.63752269408207 59.668741574490994 L404.2075656759268 64.66019653247992 L405.7776086577715 63.54540811068926 L407.34765163961623 65.15416544634061 L408.91769462146095 64.86704381905781 L410.48773760330573 63.913710645674705 " fill="none" stroke-width="1.0" stroke="rgb(102,194,165)" stroke-opacity="1.0">
          </path>
        </g>
        <g>
          <path d="M19.54703512396694 266.3181818181818 L19.54703512396694 266.3181818181818 L21.117078105811675 232.74912278249897 L22.687121087656408 239.00731639208686 L24.257164069501144 226.50840191088935 L25.827207051345876 219.3155756616469 L27.39725003319061 210.64716964042438 L28.967293015035345 187.89353875850733 L30.53733599688008 168.28226959974663 L32.10737897872481 171.59090692863742 L33.677421960569546 143.6746959362018 L35.24746494241428 130.48040446957802 L36.81750792425902 134.82440308104464 L38.387550906103755 120.40162454243921 L39.957593887948484 134.69814447055393 L41.52763686979322 137.91450429600488 L43.09767985163795 119.50367057854484 L44.667722833482685 120.07414898459443 L46.23776581532742 124.75389352994696 L47.80780879717216 125.71870377202599 L49.37785177901689 131.67589070773943 L50.94789476086162 122.25050671839072 L52.51793774270636 119.80830567850896 L54.087980724551095 119.87363534134988 L55.658023706395824 132.19849311886318 L57.22806668824056 133.00611363779328 L58.798109670085296 111.53040817908536 L60.368152651930025 107.86567490563701 L61.93819563377476 99.2706856856442 L63.5082386156195 106.63558118778211 L65.07828159746424 90.76623147638568 L66.64832457930896 114.56498297828252 L68.2183675611537 113.09050639263323 L69.78841054299843 94.4885313491663 L71.35845352484316 97.92620618669383 L72.9284965066879 90.32380690174148 L74.49853948853263 99.49852063603524 L76.06858247037738 121.8079528397223 L77.6386254522221 115.69665868890885 L79.20866843406684 105.11121819513141 L80.77871141591157 93.18845174977663 L82.3487543977563 100.72846463602451 L83.91879737960105 95.7553314919703 L85.48884036144577 95.54923700037043 L87.05888334329052 103.18347580603835 L88.62892632513524 96.69812740734143 L90.19896930697999 98.82017984983226 L91.76901228882471 97.16072361054538 L93.33905527066943 98.84172063658528 L94.90909825251418 104.89617706070041 L96.4791412343589 102.99040124178251 L98.04918421620366 91.87766240350659 L99.61922719804838 88.8545443682003 L101.18927017989313 85.62275938186185 L102.75931316173785 95.60694034374797 L104.32935614358257 97.87045897014863 L105.89939912542732 84.6503607300071 L107.46944210727204 90.96609560347767 L109.0394850891168 93.18717993414391 L110.60952807096152 91.86711629536146 L112.17957105280627 94.46776093320837 L113.74961403465099 97.51967402643875 L115.31965701649571 83.6160024207904 L116.88969999834046 92.11958139219462 L118.45974298018518 87.66500884563406 L120.02978596202993 95.18497946887518 L121.59982894387466 90.88937448613905 L123.1698719257194 94.92971062470535 L124.73991490756413 89.96779435900976 L126.30995788940885 92.53753871439213 L127.8800008712536 97.65622499990576 L129.45004385309832 90.13175562108017 L131.02008683494307 99.32744128542438 L132.5901298167878 94.95477694520815 L134.16017279863254 92.89139896559337 L135.73021578047727 103.5077953697828 L137.300258762322 100.04968954094626 L138.87030174416674 104.09991642606033 L140.44034472601146 101.4232817853702 L142.0103877078562 99.17824703976866 L143.58043068970093 98.92151543947946 L145.15047367154568 93.98516924123503 L146.7205166533904 99.76562054417795 L148.29055963523516 94.70036608679668 L149.86060261707988 97.46171802203268 L151.43064559892463 99.06164568077119 L153.00068858076935 99.18962852991868 L154.57073156261407 94.47460747195991 L156.14077454445882 91.80486925454004 L157.71081752630354 90.60107412505818 L159.2808605081483 92.13389646953198 L160.85090348999302 107.43636978478054 L162.42094647183777 102.60880879683 L163.9909894536825 98.52580209219595 L165.5610324355272 98.19900271170722 L167.13107541737196 101.08745470017533 L168.70111839921668 95.20793020191935 L170.27116138106143 101.18377119163655 L171.84120436290615 96.81184854729155 L173.4112473447509 97.6850823010322 L174.98129032659563 98.66286563899959 L176.55133330844035 100.99754220059071 L178.1213762902851 94.35524129832197 L179.69141927212982 102.31194452902724 L181.26146225397457 104.10933470817332 L182.8315052358193 94.92348716523003 L184.40154821766404 98.90981251280576 L185.97159119950877 100.48451362236915 L187.5416341813535 99.60542581382185 L189.11167716319824 96.37041163071946 L190.68172014504296 101.35373314089739 L192.2517631268877 101.84892532416033 L193.82180610873243 100.58048386844386 L195.39184909057718 99.98679584214655 L196.9618920724219 99.05686536859247 L198.53193505426663 102.78192730745198 L200.10197803611138 103.86883247652096 L201.6720210179561 107.04475529365672 L203.24206399980085 97.84474111085585 L204.81210698164557 95.08577121572652 L206.38214996349032 97.86724272355883 L207.95219294533504 94.62838549937564 L209.52223592717976 98.43135813861919 L211.09227890902451 94.50358823863178 L212.66232189086924 99.8168180817016 L214.232364872714 98.36769359988298 L215.8024078545587 104.44574540620636 L217.37245083640346 98.45518227186977 L218.94249381824818 101.35564122160693 L220.5125368000929 99.23879165436726 L222.08257978193765 103.59430803261031 L223.65262276378238 100.7497509739939 L225.22266574562713 103.81635187512579 L226.79270872747185 117.2508014161683 L228.3627517093166 111.11275017194605 L229.93279469116132 113.4265902045036 L231.50283767300604 108.65085178116729 L233.0728806548508 105.32161645455326 L234.6429236366955 109.88448170251189 L236.21296661854026 108.8739490317774 L237.783009600385 108.93490475353804 L239.35305258222974 109.97843585302438 L240.92309556407446 108.01985744875856 L242.49313854591918 109.39236335298592 L244.06318152776393 110.48475711958342 L245.63322450960865 109.50978882201436 L247.2032674914534 108.88348475887909 L248.77331047329812 110.72895331116662 L250.34335345514287 109.07117232554586 L251.9133964369876 110.64015540040563 L253.48343941883232 112.44953188857718 L255.05348240067707 111.83870488654865 L256.6235253825218 116.21242647928752 L258.1935683643665 116.63831225713538 L259.76361134621123 117.44774992758059 L261.333654328056 116.47179118997079 L262.90369730990074 117.80923941890286 L264.47374029174546 117.78994580315585 L266.0437832735902 116.34096511577592 L267.6138262554349 118.6584758151468 L269.1838692372797 118.94965719675179 L270.7539122191244 118.19222028043139 L272.3239552009691 118.86443169122118 L273.89399818281385 121.23881689000324 L275.46404116465857 122.98178821320184 L277.0340841465033 123.3021520022944 L278.60412712834807 125.20802855463359 L280.1741701101928 124.59334466855077 L281.7442130920375 57.11772762954611 L283.31425607388223 66.21302224043106 L284.884299055727 57.727055125188855 L286.45434203757173 58.81811221889039 L288.02438501941646 55.8452501069268 L289.5944280012612 58.593715715360176 L291.1644709831059 59.6151270443887 L292.7345139649507 61.818212014994934 L294.3045569467954 59.5065209276018 L295.8745999286401 75.99665567466377 L297.44464291048484 65.18724671891853 L299.01468589232957 58.536716081790644 L300.58472887417435 64.05881187464615 L302.15477185601907 63.551089495289794 L303.7248148378638 60.7866948528482 L305.2948578197085 64.17416957589029 L306.8649008015533 59.47194573079942 L308.434943783398 69.34707749684452 L310.00498676524273 68.43834016308358 L311.57502974708746 69.26344752030046 L313.1450727289322 69.8399422495122 L314.71511571077696 68.10665256010324 L316.2851586926217 69.71211381389357 L317.8552016744664 68.46694299979592 L319.4252446563111 71.04866112689791 L320.99528763815584 67.53994799020013 L322.5653306200006 70.040921394913 L324.13537360184534 66.74757960133729 L325.70541658369007 78.42420635239975 L327.2754595655348 69.04592005085155 L328.84550254737957 67.35062245987191 L330.4155455292243 62.58549427124524 L331.985588511069 65.9607286427719 L333.55563149291373 70.81049843440907 L335.12567447475845 61.05267496247066 L336.69571745660323 69.49955931158087 L338.26576043844796 71.49083875782704 L339.8358034202927 66.47320269011688 L341.4058464021374 74.05836165601443 L342.9758893839821 75.59061669662196 L344.5459323658269 70.55788747827255 L346.1159753476716 69.47032227493398 L347.68601832951634 71.00330318938562 L349.25606131136107 79.27370511542397 L350.82610429320584 75.61065772691151 L352.39614727505057 72.34456509309686 L353.9661902568953 76.33911571983272 L355.53623323874 76.2787643374918 L357.10627622058473 82.99320304148026 L358.6763192024295 84.64887087153343 L360.24636218427423 82.50787051106943 L361.81640516611895 78.61025446740146 L363.3864481479637 68.98379513659123 L364.9564911298084 77.91987324444074 L366.5265341116532 81.9109613910727 L368.0965770934979 81.07905863826154 L369.6666200753426 84.87535513482143 L371.23666305718734 82.65775021312037 L372.8067060390321 88.18852883591177 L374.37674902087684 74.23448150507897 L375.94679200272157 80.87777037338708 L377.5168349845663 74.18356753720585 L379.086877966411 80.05613774228598 L380.6569209482558 83.5205824008898 L382.2269639301005 81.6138047198954 L383.79700691194523 83.66216718406046 L385.36704989378995 81.90064056506836 L386.9370928756347 80.0932425795516 L388.50713585747945 82.5918941292781 L390.0771788393242 86.67127619146461 L391.6472218211689 87.49476385332721 L393.2172648030136 84.9887473816298 L394.7873077848584 86.00208898917519 L396.3573507667031 84.00514007960336 L397.92739374854784 80.80784388861801 L399.49743673039256 81.17895219573046 L401.0674797122373 79.17535425017698 L402.63752269408207 79.60655385386175 L404.2075656759268 80.74632364343393 L405.7776086577715 86.35967824544102 L407.34765163961623 83.16520658333684 L408.91769462146095 86.69277631969481 L410.48773760330573 89.65064006512355 " fill="none" stroke-width="1.0" stroke="rgb(252,141,98)" stroke-opacity="1.0">
          </path>
        </g>
      </g>
    </g>
    <g transform="translate(53.88511363636364 16.0 ) ">
      <text class="plot-title" x="0.0">
        <tspan x="0.0" y="0.0">
        Single- vs. Multi-Agent
        </tspan>
      </text>
    </g>
    <g transform="translate(53.88511363636364 39.0 ) ">
      <text class="plot-subtitle" x="0.0">
        <tspan x="0.0" y="0.0">
        Total Realized Reward
        </tspan>
      </text>
    </g>
    <g transform="translate(23.46511363636364 196.5 ) rotate(-90.0 ) ">
      <text class="axis-title-y" text-anchor="middle">
      
      </text>
    </g>
    <g transform="translate(268.9025 360.0 ) ">
      <text class="axis-title-x" text-anchor="middle" dy="0.7em">
      Episodes
      </text>
    </g>
    <g transform="translate(493.91988636363635 152.25 ) ">
      <rect x="5.0" y="5.0" height="78.5" width="89.61500000000001" stroke="rgb(71,71,71)" stroke-opacity="1.0" stroke-width="0.0" fill="rgb(255,255,255)" fill-opacity="1.0">
      </rect>
      <g transform="translate(10.0 10.0 ) ">
        <g transform="translate(0.0 12.0 ) ">
          <text class="legend-title" x="0.0">
            <tspan x="0.0" y="0.0">
            Agent
            </tspan>
          </text>
        </g>
        <g transform="translate(0.0 22.5 ) ">
          <g transform="">
            <g>
              <rect x="0.0" y="0.0" height="23.0" width="23.0" stroke-width="0.0" fill="rgb(255,255,255)" fill-opacity="1.0">
              </rect>
              <g transform="translate(1.0 1.0 ) ">
                <g>
                  <line x1="0.0" y1="10.5" x2="21.0" y2="10.5" stroke="rgb(102,194,165)" stroke-opacity="1.0" fill="rgb(17,142,216)" fill-opacity="1.0" stroke-width="1.0">
                  </line>
                </g>
              </g>
              <rect x="0.0" y="0.0" height="23.0" width="23.0" stroke="rgb(255,255,255)" stroke-opacity="1.0" stroke-width="1.0" fill-opacity="0.0">
              </rect>
            </g>
            <g transform="translate(27.355 11.5 ) ">
              <text class="legend-item" dy="0.35em">
              multi
              </text>
            </g>
          </g>
          <g transform="translate(0.0 23.0 ) ">
            <g>
              <rect x="0.0" y="0.0" height="23.0" width="23.0" stroke-width="0.0" fill="rgb(255,255,255)" fill-opacity="1.0">
              </rect>
              <g transform="translate(1.0 1.0 ) ">
                <g>
                  <line x1="0.0" y1="10.5" x2="21.0" y2="10.5" stroke="rgb(252,141,98)" stroke-opacity="1.0" fill="rgb(17,142,216)" fill-opacity="1.0" stroke-width="1.0">
                  </line>
                </g>
              </g>
              <rect x="0.0" y="0.0" height="23.0" width="23.0" stroke="rgb(255,255,255)" stroke-opacity="1.0" stroke-width="1.0" fill-opacity="0.0">
              </rect>
            </g>
            <g transform="translate(27.355 11.5 ) ">
              <text class="legend-item" dy="0.35em">
              single
              </text>
            </g>
          </g>
        </g>
      </g>
    </g>
    <g transform="translate(483.9198863636363 392.0 ) ">
      <text class="plot-caption" text-anchor="end" x="0.0">
        <tspan x="0.0" y="0.0">
        Training
        </tspan>
      </text>
    </g>
  </g>
</svg>